<svg width="46" height="34" viewBox="0 0 46 34" fill="none" xmlns="http://www.w3.org/2000/svg">
<path d="M27.0996 1.77151L27.3291 1.89889L27.4473 2.06055L27.6768 2.14384L27.6212 2.3055L27.6768 2.46717V2.62884L27.795 2.7954L27.9133 2.95707L27.8507 3.11873L27.962 3.2804L27.9133 3.44697L28.0246 3.60863L28.1984 3.7703H28.4279L28.6574 3.85358L28.8869 3.97116L29.0052 4.13282L29.0678 4.29449L28.8382 4.42186L28.6574 4.58353L28.4279 4.7452L28.1984 4.91176L27.9133 5.07343L27.6768 5.15671L27.503 5.31838L27.2734 5.43595L27.0996 5.59762V5.76418L26.9883 5.92585L26.8075 6.08752L26.578 6.24918L26.4041 6.41575H26.6406L27.2178 6.29327L27.4473 6.24918L27.5655 6.08752V5.92585L27.795 5.84257L27.962 6.00913L28.1428 6.1708L28.1984 6.00913L28.0246 5.84257L28.0802 5.6809L28.261 5.51924L28.4905 5.43595H28.72H28.9495L29.186 5.48004H29.4155L29.645 5.43595L29.8745 5.39676L30.111 5.31838H30.3405L30.57 5.35757L30.9177 5.51924L30.7369 5.6809L30.6882 5.84257L30.6256 6.00913L30.5074 6.1708L30.3405 6.33247L30.111 6.49413L29.8745 6.53822L29.645 6.49413L29.4155 6.62151L29.186 6.69989L28.9495 6.6607L28.72 6.62151L28.4905 6.6607L28.261 6.69989H28.0246H27.795L27.5655 6.62151L27.2734 6.57742L27.037 6.6607V6.82237L27.3291 6.69989L27.5655 6.78317L27.795 6.82237L28.0246 6.86646H28.261L28.4905 6.78317L28.72 6.82237H28.9495L29.186 6.86646H29.4155L29.645 6.78317L29.7006 6.94484L29.9301 6.82237L29.9927 6.6607L30.2222 6.62151L30.4517 6.49413H30.6882L30.7369 6.33247L30.9177 6.1708L31.0359 6.00913L31.2028 5.84257L31.4323 5.76418L31.6618 5.84257L31.8983 5.88666L32.1278 6.00913L32.3573 6.04833L32.5868 6.08752L32.8233 6.21489L33.0528 6.29327L33.3449 6.37656L33.63 6.45984L33.8595 6.41575L34.096 6.49413L34.3255 6.62151L34.3881 6.78317L34.6176 6.69989L34.8471 6.73908L35.0766 6.86646L35.2505 7.02812V7.18979L35.1948 7.35146L35.2505 7.51802L35.1948 7.71888V7.88055L35.021 8.04221L35.2505 8.0863L35.4243 7.92464L35.48 7.76297L35.5426 7.5964L35.7721 7.55231L35.9459 7.71888L36.238 7.67969L36.3493 7.51802L36.4675 7.35146L36.697 7.43474L36.9265 7.51802L37.163 7.6356L37.3925 7.71888L37.622 7.76297L37.8515 7.92464L38.088 7.96383L38.3175 7.84135L38.547 7.92464L38.7765 8.00302L39.0129 8.12549L39.2425 8.04221L39.472 8.0863L39.6458 8.24797L39.8753 8.16959L40.1048 8.0863H40.3343L40.6264 8.20388L40.8629 8.33125H41.0924L41.3219 8.44883L41.5514 8.5762L41.7253 8.73787L41.8991 8.89953L42.1356 8.98282L42.3651 9.0612L42.4764 9.22777L42.6502 9.38943L42.7615 9.5511L42.998 9.71276L43.2275 9.79605L43.457 9.87933L43.6934 9.99691L43.9229 10.0802L44.1525 10.2419L44.215 10.4035L44.5628 10.3643L44.8479 10.4476L45.0774 10.4868L45.3069 10.5309L45.4252 10.6926L45.5434 10.8542L45.4878 11.0159V11.1825L45.599 11.3441L45.7173 11.5058V11.6675L45.7729 11.834V11.9957V12.1574L45.7173 12.319L45.6547 12.4856L45.7173 12.6473V12.8089L45.599 12.9706L45.4878 13.1372V13.2988L45.4252 13.4605L45.3695 13.6222L45.2582 13.7887L45.0774 13.9455L44.9105 14.1072L44.6741 14.1512H44.4445L44.5628 14.3129L44.4445 14.4746L44.2707 14.6411L44.0968 14.8028L43.8673 14.9204L43.6378 15.0478H43.4013L43.2275 15.2094L42.998 15.327L42.8797 15.4936L42.7615 15.6552L42.6502 15.8218L42.532 15.9835L42.1356 16.2284L41.9548 16.395L41.7253 16.4734L41.4401 16.4293L41.2106 16.3509L41.148 16.5126V16.6742L41.0924 16.8359L40.9116 17.0025L40.7447 17.1641L40.6821 17.3258L40.7447 17.4874L40.9742 17.4091V17.5707V17.7324L40.7447 17.8598L40.6264 18.0214L40.7447 18.1831V18.3448V18.5113L40.8003 18.673V18.8347L40.7447 18.9963V19.1629L40.6264 19.3246L40.5708 19.4862L40.4526 19.6479L40.3969 19.8145L40.2231 19.9761L40.1674 20.1378L40.1048 20.2995L40.0492 20.466V20.6277L39.8753 20.7894L39.7015 20.951L39.5902 21.1176L39.5276 21.2793V21.4409L39.472 21.6026V21.7692L39.4094 21.9308L39.2981 22.0925L39.0616 22.1758L38.8321 22.455L38.6026 22.5824L38.547 22.7441V22.9057L38.3175 22.9449L38.088 23.1066L37.8515 23.1507V23.3123L37.6777 23.4789L37.5107 23.6406V23.8022V23.9639V24.1305L37.2743 24.2921L37.0448 24.3754L36.8153 24.4097L36.5858 24.5371V24.6988L36.3493 24.782L36.1198 24.7379H35.8903H35.6608H35.4243L35.1948 24.6988L34.9653 24.7379L34.7358 24.782L34.4994 24.6547L34.2699 24.6988L34.0403 24.782H33.8108L33.5744 24.8996L33.3449 25.027L33.1154 25.0613L32.8859 25.1887L32.7676 25.3503H32.5381H32.1904L31.9609 25.4336L31.7244 25.512H31.4949L31.2654 25.5512L31.0359 25.6345L30.7995 25.7569L30.6256 25.9186L30.3961 26.0411L30.1596 26.1635L29.9927 26.3252L29.8745 26.4918L29.645 26.5702L29.4155 26.5261L29.2347 26.6926V26.8543L29.186 27.016L29.1234 27.1776V27.3442L29.186 27.5059L29.2347 27.6675L29.186 27.9517V28.1133H28.9495V28.275V28.4416L29.0678 28.6032L29.186 28.8923L29.0678 29.0539L28.8869 29.2156L28.6574 29.2548L28.1984 29.2989L28.0246 29.4606L27.8507 29.6222L27.6212 29.7496L27.5655 29.9113L27.4473 30.0729L27.3291 30.2346L27.2178 30.4012L27.1552 30.5628L27.037 30.7245L26.9883 30.8862L26.8701 31.0527L26.6406 31.2144L26.4041 31.332L26.2302 31.4936L26.0007 31.6161L25.7643 31.7386L25.5348 31.8219L25.4235 31.6602L25.653 31.6161L25.8825 31.4936L26.0633 31.332V31.1703L26.2302 31.0086L26.4598 30.9254L26.578 30.7637L26.6406 30.5628V30.4012H26.4041L26.1746 30.3179V30.4796L26.2302 30.6412L26.1746 30.8078L25.9451 30.9254L25.8825 31.087L25.653 31.2144L25.4791 31.3761L25.2496 31.5328L25.0758 31.6945V31.8611V32.0227V32.1844V32.3461L24.9575 32.5126L24.9019 32.6743L24.7906 32.836L24.6098 32.9976L24.3803 33.0809L24.1508 33.125L23.9143 33.0809L23.8657 32.9192L23.9769 32.7576L24.2134 32.591L24.4429 32.4734L24.6724 32.3118L24.728 32.1452V31.9835L24.4985 32.0227L24.3247 32.1844L24.1508 32.3461L24.0952 32.3902L23.8657 32.2285L23.6848 32.0668L23.5179 31.9052L23.3371 31.7386L23.1076 31.621L22.8781 31.4936L22.6486 31.4153L22.4121 31.2928L22.1826 31.1703L22.0644 31.0086L21.8975 30.8421L21.668 30.8862L21.4385 30.8078L21.2577 30.6412L21.0281 30.4796L20.7986 30.3571L20.6804 30.1905H20.4509L20.2144 30.2738L19.9849 30.3179L19.6998 30.3571L19.8737 30.1905L20.0475 30.0288L20.2144 29.8672L20.3953 29.7055L20.5622 29.5438L20.7986 29.3773L20.9725 29.2156L21.202 29.0539L21.3759 28.8923L21.4872 28.7257L21.7236 28.5641L21.9531 28.4808L22.1826 28.4465L22.4121 28.3632L22.5304 28.2015L22.7599 28.1182L22.9894 27.9958L23.2258 27.9125H23.4553L23.6848 27.7949L23.8657 27.6283V27.4667L23.9143 27.305V27.1433V26.9768L23.8031 26.8151V26.6534L23.6292 26.4918L23.3997 26.4477L23.1702 26.5261L22.9407 26.6192L23.052 26.4575V26.2958V26.1342V25.9676V25.8059V25.6002L23.1702 25.4385L23.2258 25.2719L23.1702 25.1103L22.9407 25.0711H22.6486L22.4121 25.0319L22.1826 24.9094L22.127 24.7477L22.0644 24.5861L22.127 24.4244L22.0157 24.2578L21.9531 24.0962L22.0157 23.9345L21.8975 23.7728L21.668 23.6896L21.4385 23.6063L21.202 23.5279H20.9725L20.743 23.5622H20.5135H20.277L20.0475 23.6455L19.818 23.6063L19.5259 23.5279L19.5885 23.3613L19.6372 23.1997V23.038L19.5259 22.8763L19.6372 22.7098V22.5481L19.5259 22.3864V22.2248V22.0582L19.4077 21.9357L19.6998 21.6908L19.3521 21.4899L19.4077 21.3283L19.5259 21.1666L19.5885 21L19.6372 20.8384L19.7554 20.6767L19.818 20.515L19.9293 20.3485L20.0475 20.1868L19.8737 20.0251L19.6998 19.8635L19.4703 19.7361L19.2408 19.5744L19.0043 19.4911L18.9487 19.3295L18.8305 19.1678L18.8931 19.0061L19.0043 18.8396L19.1226 18.6779L19.06 18.6387L16.9805 18.5603L16.6328 17.703H16.8623L16.9805 17.5364V17.3748L16.8136 17.2131L16.9249 17.0514V16.8849L16.751 16.7232L16.5146 16.6399L16.2851 16.6056L16.0555 16.5224L15.826 16.4391H15.5896L15.3601 16.4783H15.1306L14.9011 16.3607L14.6646 16.199H14.4351L14.2056 16.1549L13.9761 16.0716L13.7396 15.9541L13.5727 15.7875H13.3432L13.1137 15.7091L12.8773 15.665H12.6478H12.4183L12.1818 15.5817L12.0079 15.4201L11.7784 15.3025L11.5489 15.2192L11.3125 15.0576L11.083 14.9302L11.0273 14.7685L11.083 14.6068V14.4452L11.0273 14.2786L10.916 14.117L10.7978 13.9553L10.916 13.7936L11.0273 13.6271V13.4654L10.916 13.3037L10.6796 13.3478H10.4501L10.2206 13.387H9.99107L9.75461 13.4262L9.52511 13.5487L9.35124 13.7103L9.11478 13.8377L8.88528 13.872L8.65577 13.9553L8.4819 14.117L8.2524 14.2002L8.0229 14.2443L7.84208 14.406L7.67516 14.5677H7.44566L7.21615 14.4893L6.97969 14.4452L6.75019 14.4893L6.52069 14.5236L6.33291 14.5579L6.04081 14.5187L5.81131 14.6019L5.58181 14.6803H5.34535L5.11584 14.6411L4.99761 14.4746L5.0602 14.3129V13.7054L4.99761 13.5438V13.3772L4.77506 13.338L4.54556 13.4605L4.31605 13.5438L4.08655 13.6613L3.90573 13.823L3.67622 13.8671L3.44672 13.9063H3.21026L3.04335 13.7446L2.81384 13.5781L2.57043 13.4605L2.34092 13.4164L2.11142 13.4605H1.88192L1.93755 13.2988L1.88192 13.0931L1.76369 12.9265L1.53418 12.7648L1.36031 12.6032L1.29772 12.4415L1.24904 12.2798L1.01258 12.1574L0.901306 11.9957L1.01258 11.834L1.06822 11.6675L1.13081 11.5058L1.18645 11.3441L1.29772 11.1825L1.59677 11.0992L1.82628 10.9375L1.76369 10.7758L1.70805 10.6093V10.4476L1.82628 10.2859L1.99319 10.1243L2.11142 9.95771L2.22269 9.79605L2.40352 9.63438L2.57043 9.47271L2.81384 9.38943L3.04335 9.30615L3.27285 9.26206H3.55799H3.7875L4.02396 9.10039L4.25346 9.02201L4.54556 8.93872H4.77506L4.99761 9.02201L5.23407 8.93872H5.46358L5.52617 8.85544L5.81131 7.71888L5.92258 6.69989V6.62151L5.98518 6.45984V6.29327L5.81131 6.13161L5.63744 5.96994L5.46358 5.80828L5.23407 5.76908V5.60742V5.44085V5.27919V5.11752L5.29666 4.95585H5.52617L5.75567 4.82848L5.98518 4.95585L6.22163 4.87257L6.15904 4.7109L5.92258 4.53944L5.69308 4.46106L5.46358 4.50515L5.40794 3.97116H5.63744H5.92258H6.15904H6.38855H6.61805H6.84756L7.14661 4.01525L7.37611 3.88787V3.72621L7.66125 3.7703L7.89076 3.68702L8.12026 3.64782H8.35672L8.468 3.72621L8.58623 3.88787L8.70446 4.05444L8.93396 4.21611L9.10783 4.37777L9.34429 4.46106L9.39297 4.62272L9.62943 4.66681L9.85893 4.7452L10.0884 4.82848H10.3179L10.5544 4.7109L10.6657 4.53944L10.8952 4.66681L11.076 4.46106L11.1942 4.29449L11.4237 4.17691L11.6532 4.05444L11.8827 3.97116L12.001 3.80949L12.2305 3.64782L12.46 3.60863L12.6964 3.56454L12.9259 3.48126L12.8634 3.31959L12.6338 3.2804H12.4043H12.1679L11.9384 3.20202V3.03545L12.001 2.87378L11.8827 2.71212V2.55045L11.8202 2.34469L11.6532 2.17813L11.4237 2.09975L11.1942 1.97727V1.8156H11.4237L11.6532 1.8548L11.8827 1.8156L12.1192 1.89889L12.3487 1.93318L12.5782 2.01646L12.8077 2.06055L13.0442 2.14384L13.2737 2.17813L13.5032 2.06055L13.6701 1.89889H13.9066H14.1361L14.3656 1.8156H14.5951L14.8315 1.77151L15.061 1.69313L15.2905 1.57066H15.52L15.8191 1.44818L16.1042 1.3649L16.2781 1.20323L16.1738 1.03177L16.3963 0.958283L16.6258 0.875H16.8553L17.0848 0.958283V1.24732L16.8553 1.3649V1.52656L17.0292 1.69313L17.2031 1.8548L17.2587 2.01646L17.2031 2.17813L17.1405 2.34469L17.0848 2.50636V2.66803V2.82969V2.99626V3.15793L17.2031 3.31959L17.2587 3.48126L17.3213 3.64782L17.4326 3.80949L17.669 3.88787L17.8985 3.93197L18.1837 4.05444L18.4201 4.09363H18.6496L18.8861 4.01525L19.1156 3.93197L19.3451 3.85848H19.7485H19.978L20.2075 3.68702L20.444 3.60863H20.6735L20.9656 3.56454L21.0212 3.60863H21.2507L21.4802 3.72621L21.7723 3.68702L22.0088 3.56454V3.40287L21.7723 3.2804L21.8279 3.11873L22.0574 3.15793L22.2939 3.20202L22.5234 3.15793L22.7529 3.07464H22.9824L23.1006 3.23631H23.3301L23.4553 3.36858L23.6848 3.40777L23.9769 3.48616L24.2134 3.40777L24.4429 3.2853L24.6724 3.32449L24.9019 3.2853L25.1384 3.36858L25.3679 3.40777L25.5974 3.2853L26.1746 2.75621L26.2928 2.59454L26.4598 2.42798L26.6406 2.22712L26.8075 2.06545L26.9883 1.90379L26.9257 1.74212L27.0996 1.77151Z" fill="#FFFDFD" stroke="black" stroke-width="0.186023"/>
</svg>
