<svg width="774" height="99" viewBox="0 0 774 99" fill="none" xmlns="http://www.w3.org/2000/svg">
<path d="M36.0447 49.2006C35.7423 49.3518 35.7423 49.503 36.0447 49.6542C40.8327 52.1238 43.2267 56.2314 43.2267 61.977C43.2267 66.8658 41.5635 70.5702 38.2371 73.0902C34.9107 75.5598 30.5511 76.7946 25.1583 76.7946H5.57788C5.32588 76.7946 5.09908 76.719 4.89748 76.5678C4.74628 76.3662 4.67068 76.1394 4.67068 75.8874V24.7818C4.67068 24.5298 4.74628 24.3282 4.89748 24.177C5.09908 23.9754 5.32588 23.8746 5.57788 23.8746H24.5535C36.4983 23.8746 42.4707 28.713 42.4707 38.3898C42.4707 43.4298 40.3287 47.0334 36.0447 49.2006ZM15.7083 33.0222C15.4563 33.0222 15.3303 33.1482 15.3303 33.4002V45.1938C15.3303 45.4458 15.4563 45.5718 15.7083 45.5718H24.5535C26.9223 45.5718 28.7619 45.0174 30.0723 43.9086C31.3827 42.7998 32.0379 41.2878 32.0379 39.3726C32.0379 37.407 31.3827 35.8698 30.0723 34.761C28.7619 33.6018 26.9223 33.0222 24.5535 33.0222H15.7083ZM25.1583 67.5714C27.4767 67.5714 29.2911 66.9918 30.6015 65.8326C31.9119 64.623 32.5671 62.985 32.5671 60.9186C32.5671 58.8522 31.9119 57.2394 30.6015 56.0802C29.2911 54.8706 27.4515 54.2658 25.0827 54.2658H15.7083C15.4563 54.2658 15.3303 54.3918 15.3303 54.6438V67.1934C15.3303 67.4454 15.4563 67.5714 15.7083 67.5714H25.1583ZM70.2247 37.407C72.0391 37.407 73.4755 37.7598 74.5339 38.4654C74.9371 38.667 75.0883 39.045 74.9875 39.5994L73.3999 48.2178C73.3495 48.8226 72.9967 48.999 72.3415 48.747C71.5855 48.495 70.7035 48.369 69.6955 48.369C69.2923 48.369 68.7379 48.4194 68.0323 48.5202C66.2179 48.6714 64.6807 49.3518 63.4207 50.5614C62.1607 51.7206 61.5307 53.283 61.5307 55.2486V75.8874C61.5307 76.1394 61.4299 76.3662 61.2283 76.5678C61.0771 76.719 60.8755 76.7946 60.6235 76.7946H51.7783C51.5263 76.7946 51.2995 76.719 51.0979 76.5678C50.9467 76.3662 50.8711 76.1394 50.8711 75.8874V38.8434C50.8711 38.5914 50.9467 38.3898 51.0979 38.2386C51.2995 38.037 51.5263 37.9362 51.7783 37.9362H60.6235C60.8755 37.9362 61.0771 38.037 61.2283 38.2386C61.4299 38.3898 61.5307 38.5914 61.5307 38.8434V41.7162C61.5307 41.8674 61.5811 41.9682 61.6819 42.0186C61.7827 42.069 61.8583 42.0438 61.9087 41.943C63.9751 38.919 66.7471 37.407 70.2247 37.407ZM94.8668 37.3314C98.1428 37.3314 101.066 37.911 103.636 39.0702C106.207 40.179 108.198 41.7162 109.609 43.6818C111.07 45.6474 111.801 47.8398 111.801 50.259V75.8874C111.801 76.1394 111.7 76.3662 111.499 76.5678C111.348 76.719 111.146 76.7946 110.894 76.7946H102.049C101.797 76.7946 101.57 76.719 101.368 76.5678C101.217 76.3662 101.142 76.1394 101.142 75.8874V73.3926C101.142 73.2414 101.091 73.1406 100.99 73.0902C100.89 73.0398 100.789 73.0902 100.688 73.2414C98.5712 76.0134 95.1692 77.3994 90.482 77.3994C86.5508 77.3994 83.3756 76.4418 80.9564 74.5266C78.5372 72.6114 77.3276 69.789 77.3276 66.0594C77.3276 62.1786 78.6884 59.1798 81.41 57.063C84.1316 54.8958 88.0124 53.8122 93.0524 53.8122H100.764C101.016 53.8122 101.142 53.6862 101.142 53.4342V51.771C101.142 50.1078 100.638 48.8226 99.6296 47.9154C98.6216 46.9578 97.1096 46.479 95.0936 46.479C93.5312 46.479 92.2208 46.7562 91.1624 47.3106C90.1544 47.865 89.4992 48.6462 89.1968 49.6542C89.0456 50.2086 88.718 50.4606 88.214 50.4102L79.0664 49.2006C78.4616 49.0998 78.1844 48.873 78.2348 48.5202C78.4364 46.4034 79.268 44.4882 80.7296 42.7746C82.2416 41.061 84.2072 39.7254 86.6264 38.7678C89.096 37.8102 91.8428 37.3314 94.8668 37.3314ZM93.3548 69.4614C95.522 69.4614 97.3616 68.8818 98.8736 67.7226C100.386 66.5634 101.142 65.0766 101.142 63.2622V60.5406C101.142 60.2886 101.016 60.1626 100.764 60.1626H95.3204C93.0524 60.1626 91.2632 60.591 89.9528 61.4478C88.6928 62.3046 88.0628 63.5142 88.0628 65.0766C88.0628 66.4374 88.5416 67.521 89.4992 68.3274C90.4568 69.0834 91.742 69.4614 93.3548 69.4614ZM118.1 76.7946C117.848 76.7946 117.621 76.719 117.42 76.5678C117.269 76.3662 117.193 76.1394 117.193 75.8874V67.7982C117.193 67.395 117.344 67.017 117.647 66.6642L134.657 47.991C134.909 47.6886 134.858 47.5374 134.505 47.5374H118.554C118.302 47.5374 118.075 47.4618 117.873 47.3106C117.722 47.109 117.647 46.8822 117.647 46.6302V38.8434C117.647 38.5914 117.722 38.3898 117.873 38.2386C118.075 38.037 118.302 37.9362 118.554 37.9362H146.828C147.08 37.9362 147.282 38.037 147.433 38.2386C147.635 38.3898 147.735 38.5914 147.735 38.8434V46.857C147.735 47.2098 147.584 47.5878 147.282 47.991L129.743 66.6642C129.541 66.9666 129.591 67.1178 129.894 67.1178H147.206C147.458 67.1178 147.66 67.2186 147.811 67.4202C148.013 67.5714 148.113 67.773 148.113 68.025V75.8874C148.113 76.1394 148.013 76.3662 147.811 76.5678C147.66 76.719 147.458 76.7946 147.206 76.7946H118.1ZM159.828 33.5514C158.115 33.5514 156.678 32.997 155.519 31.8882C154.41 30.729 153.856 29.2926 153.856 27.579C153.856 25.815 154.41 24.3786 155.519 23.2698C156.628 22.161 158.064 21.6066 159.828 21.6066C161.592 21.6066 163.029 22.161 164.138 23.2698C165.246 24.3786 165.801 25.815 165.801 27.579C165.801 29.2926 165.221 30.729 164.062 31.8882C162.953 32.997 161.542 33.5514 159.828 33.5514ZM155.292 76.7946C155.04 76.7946 154.814 76.719 154.612 76.5678C154.461 76.3662 154.385 76.1394 154.385 75.8874V38.7678C154.385 38.5158 154.461 38.3142 154.612 38.163C154.814 37.9614 155.04 37.8606 155.292 37.8606H164.138C164.39 37.8606 164.591 37.9614 164.742 38.163C164.944 38.3142 165.045 38.5158 165.045 38.7678V75.8874C165.045 76.1394 164.944 76.3662 164.742 76.5678C164.591 76.719 164.39 76.7946 164.138 76.7946H155.292ZM174.259 76.7946C174.007 76.7946 173.78 76.719 173.579 76.5678C173.428 76.3662 173.352 76.1394 173.352 75.8874V24.7818C173.352 24.5298 173.428 24.3282 173.579 24.177C173.78 23.9754 174.007 23.8746 174.259 23.8746H183.104C183.356 23.8746 183.558 23.9754 183.709 24.177C183.911 24.3282 184.012 24.5298 184.012 24.7818V75.8874C184.012 76.1394 183.911 76.3662 183.709 76.5678C183.558 76.719 183.356 76.7946 183.104 76.7946H174.259ZM191.809 84.2034C191.204 84.2034 190.927 83.8758 190.977 83.2206L193.472 65.6814C193.523 65.127 193.85 64.8498 194.455 64.8498H202.166C202.821 64.8498 203.073 65.1774 202.922 65.8326L198.235 83.4474C198.084 83.9514 197.731 84.2034 197.177 84.2034H191.809Z" fill="white"/>
<g clip-path="url(#clip0_80_80)">
<path d="M249.385 23.8746C249.637 23.8746 249.839 23.9754 249.99 24.177C250.192 24.3282 250.293 24.5298 250.293 24.7818V32.1906C250.293 32.4426 250.192 32.6694 249.99 32.871C249.839 33.0222 249.637 33.0978 249.385 33.0978H235.853C235.601 33.0978 235.475 33.2238 235.475 33.4758V75.8874C235.475 76.1394 235.374 76.3662 235.173 76.5678C235.021 76.719 234.82 76.7946 234.568 76.7946H225.723C225.471 76.7946 225.244 76.719 225.042 76.5678C224.891 76.3662 224.815 76.1394 224.815 75.8874V33.4758C224.815 33.2238 224.689 33.0978 224.437 33.0978H211.283C211.031 33.0978 210.804 33.0222 210.603 32.871C210.451 32.6694 210.376 32.4426 210.376 32.1906V24.7818C210.376 24.5298 210.451 24.3282 210.603 24.177C210.804 23.9754 211.031 23.8746 211.283 23.8746H249.385ZM271.485 37.407C273.299 37.407 274.736 37.7598 275.794 38.4654C276.197 38.667 276.349 39.045 276.248 39.5994L274.66 48.2178C274.61 48.8226 274.257 48.999 273.602 48.747C272.846 48.495 271.964 48.369 270.956 48.369C270.553 48.369 269.998 48.4194 269.293 48.5202C267.478 48.6714 265.941 49.3518 264.681 50.5614C263.421 51.7206 262.791 53.283 262.791 55.2486V75.8874C262.791 76.1394 262.69 76.3662 262.489 76.5678C262.337 76.719 262.136 76.7946 261.884 76.7946H253.039C252.787 76.7946 252.56 76.719 252.358 76.5678C252.207 76.3662 252.131 76.1394 252.131 75.8874V38.8434C252.131 38.5914 252.207 38.3898 252.358 38.2386C252.56 38.037 252.787 37.9362 253.039 37.9362H261.884C262.136 37.9362 262.337 38.037 262.489 38.2386C262.69 38.3898 262.791 38.5914 262.791 38.8434V41.7162C262.791 41.8674 262.841 41.9682 262.942 42.0186C263.043 42.069 263.119 42.0438 263.169 41.943C265.235 38.919 268.007 37.407 271.485 37.407ZM297.273 77.3994C293.04 77.3994 289.411 76.2906 286.387 74.073C283.363 71.8554 281.297 68.8314 280.188 65.001C279.482 62.6322 279.129 60.0618 279.129 57.2898C279.129 54.3162 279.482 51.645 280.188 49.2762C281.347 45.5466 283.439 42.6234 286.463 40.5066C289.487 38.3898 293.115 37.3314 297.349 37.3314C301.482 37.3314 305.01 38.3898 307.933 40.5066C310.856 42.573 312.923 45.471 314.132 49.2006C314.939 51.7206 315.342 54.3666 315.342 57.1386C315.342 59.8602 314.989 62.4054 314.283 64.7742C313.175 68.7054 311.108 71.805 308.084 74.073C305.111 76.2906 301.507 77.3994 297.273 77.3994ZM297.273 68.2518C298.937 68.2518 300.348 67.7478 301.507 66.7398C302.666 65.7318 303.498 64.3458 304.002 62.5818C304.405 60.969 304.607 59.205 304.607 57.2898C304.607 55.173 304.405 53.3838 304.002 51.9222C303.447 50.2086 302.591 48.873 301.431 47.9154C300.272 46.9578 298.861 46.479 297.198 46.479C295.484 46.479 294.048 46.9578 292.889 47.9154C291.78 48.873 290.973 50.2086 290.469 51.9222C290.066 53.1318 289.865 54.921 289.865 57.2898C289.865 59.5578 290.041 61.3218 290.394 62.5818C290.898 64.3458 291.729 65.7318 292.889 66.7398C294.098 67.7478 295.56 68.2518 297.273 68.2518ZM356.895 48.369C357.802 50.9394 358.255 53.9634 358.255 57.441C358.255 60.9186 357.777 64.0686 356.819 66.891C355.66 70.1166 353.82 72.687 351.3 74.6022C348.831 76.467 345.756 77.3994 342.077 77.3994C338.448 77.3994 335.626 76.1394 333.61 73.6194C333.509 73.4682 333.408 73.4178 333.307 73.4682C333.207 73.5186 333.156 73.6194 333.156 73.7706V89.949C333.156 90.201 333.055 90.4026 332.854 90.5538C332.703 90.7554 332.501 90.8562 332.249 90.8562H323.404C323.152 90.8562 322.925 90.7554 322.723 90.5538C322.572 90.4026 322.497 90.201 322.497 89.949V38.8434C322.497 38.5914 322.572 38.3898 322.723 38.2386C322.925 38.037 323.152 37.9362 323.404 37.9362H332.249C332.501 37.9362 332.703 38.037 332.854 38.2386C333.055 38.3898 333.156 38.5914 333.156 38.8434V41.3382C333.156 41.4894 333.207 41.5902 333.307 41.6406C333.408 41.6406 333.509 41.5902 333.61 41.4894C335.727 38.7174 338.65 37.3314 342.379 37.3314C345.857 37.3314 348.856 38.3142 351.376 40.2798C353.946 42.195 355.786 44.8914 356.895 48.369ZM345.328 65.3034C346.588 63.3378 347.218 60.6666 347.218 57.2898C347.218 54.1146 346.689 51.5946 345.63 49.7298C344.471 47.5626 342.606 46.479 340.036 46.479C337.717 46.479 335.979 47.5626 334.819 49.7298C333.761 51.5442 333.232 54.0894 333.232 57.3654C333.232 60.7422 333.786 63.363 334.895 65.2278C336.054 67.2438 337.768 68.2518 340.036 68.2518C342.304 68.2518 344.068 67.269 345.328 65.3034ZM370.908 33.5514C369.194 33.5514 367.758 32.997 366.599 31.8882C365.49 30.729 364.935 29.2926 364.935 27.579C364.935 25.815 365.49 24.3786 366.599 23.2698C367.707 22.161 369.144 21.6066 370.908 21.6066C372.672 21.6066 374.108 22.161 375.217 23.2698C376.326 24.3786 376.88 25.815 376.88 27.579C376.88 29.2926 376.301 30.729 375.141 31.8882C374.033 32.997 372.621 33.5514 370.908 33.5514ZM366.372 76.7946C366.12 76.7946 365.893 76.719 365.691 76.5678C365.54 76.3662 365.465 76.1394 365.465 75.8874V38.7678C365.465 38.5158 365.54 38.3142 365.691 38.163C365.893 37.9614 366.12 37.8606 366.372 37.8606H375.217C375.469 37.8606 375.671 37.9614 375.822 38.163C376.023 38.3142 376.124 38.5158 376.124 38.7678V75.8874C376.124 76.1394 376.023 76.3662 375.822 76.5678C375.671 76.719 375.469 76.7946 375.217 76.7946H366.372ZM401.517 77.3994C397.485 77.3994 393.982 76.3914 391.009 74.3754C388.085 72.3594 385.994 69.5874 384.734 66.0594C383.877 63.5394 383.449 60.5658 383.449 57.1386C383.449 53.7618 383.877 50.8386 384.734 48.369C385.943 44.9418 388.035 42.2454 391.009 40.2798C393.982 38.3142 397.485 37.3314 401.517 37.3314C405.549 37.3314 409.077 38.3394 412.101 40.3554C415.175 42.3714 417.217 44.9166 418.225 47.991C418.628 49.2006 418.829 50.1078 418.829 50.7126V50.8638C418.829 51.3174 418.577 51.5946 418.073 51.6954L409.379 52.9806H409.228C408.775 52.9806 408.472 52.7286 408.321 52.2246L408.094 51.015C407.741 49.7046 406.96 48.621 405.751 47.7642C404.541 46.9074 403.105 46.479 401.441 46.479C399.829 46.479 398.468 46.8822 397.359 47.6886C396.25 48.495 395.469 49.6038 395.015 51.015C394.461 52.527 394.184 54.5934 394.184 57.2142C394.184 59.835 394.436 61.9014 394.94 63.4134C395.393 64.9254 396.175 66.1098 397.283 66.9666C398.443 67.8234 399.829 68.2518 401.441 68.2518C403.004 68.2518 404.365 67.8486 405.524 67.0422C406.733 66.1854 407.565 65.0262 408.019 63.5646C408.069 63.4638 408.094 63.3126 408.094 63.111C408.145 63.0606 408.17 62.985 408.17 62.8842C408.22 62.2794 408.573 62.0274 409.228 62.1282L417.922 63.489C418.426 63.5898 418.678 63.867 418.678 64.3206C418.678 64.7238 418.527 65.4798 418.225 66.5886C417.166 69.9654 415.1 72.6114 412.025 74.5266C409.001 76.4418 405.499 77.3994 401.517 77.3994ZM440.535 37.3314C443.811 37.3314 446.734 37.911 449.304 39.0702C451.875 40.179 453.866 41.7162 455.277 43.6818C456.738 45.6474 457.469 47.8398 457.469 50.259V75.8874C457.469 76.1394 457.368 76.3662 457.167 76.5678C457.016 76.719 456.814 76.7946 456.562 76.7946H447.717C447.465 76.7946 447.238 76.719 447.036 76.5678C446.885 76.3662 446.81 76.1394 446.81 75.8874V73.3926C446.81 73.2414 446.759 73.1406 446.658 73.0902C446.558 73.0398 446.457 73.0902 446.356 73.2414C444.239 76.0134 440.837 77.3994 436.15 77.3994C432.219 77.3994 429.044 76.4418 426.624 74.5266C424.205 72.6114 422.996 69.789 422.996 66.0594C422.996 62.1786 424.356 59.1798 427.078 57.063C429.8 54.8958 433.68 53.8122 438.72 53.8122H446.432C446.684 53.8122 446.81 53.6862 446.81 53.4342V51.771C446.81 50.1078 446.306 48.8226 445.298 47.9154C444.29 46.9578 442.778 46.479 440.762 46.479C439.199 46.479 437.889 46.7562 436.83 47.3106C435.822 47.865 435.167 48.6462 434.865 49.6542C434.714 50.2086 434.386 50.4606 433.882 50.4102L424.734 49.2006C424.13 49.0998 423.852 48.873 423.903 48.5202C424.104 46.4034 424.936 44.4882 426.398 42.7746C427.91 41.061 429.875 39.7254 432.294 38.7678C434.764 37.8102 437.511 37.3314 440.535 37.3314ZM439.023 69.4614C441.19 69.4614 443.03 68.8818 444.542 67.7226C446.054 66.5634 446.81 65.0766 446.81 63.2622V60.5406C446.81 60.2886 446.684 60.1626 446.432 60.1626H440.988C438.72 60.1626 436.931 60.591 435.621 61.4478C434.361 62.3046 433.731 63.5142 433.731 65.0766C433.731 66.4374 434.21 67.521 435.167 68.3274C436.125 69.0834 437.41 69.4614 439.023 69.4614ZM465.885 76.7946C465.633 76.7946 465.406 76.719 465.205 76.5678C465.053 76.3662 464.978 76.1394 464.978 75.8874V24.7818C464.978 24.5298 465.053 24.3282 465.205 24.177C465.406 23.9754 465.633 23.8746 465.885 23.8746H474.73C474.982 23.8746 475.184 23.9754 475.335 24.177C475.537 24.3282 475.637 24.5298 475.637 24.7818V75.8874C475.637 76.1394 475.537 76.3662 475.335 76.5678C475.184 76.719 474.982 76.7946 474.73 76.7946H465.885ZM522.308 38.8434C522.308 38.5914 522.384 38.3898 522.535 38.2386C522.736 38.037 522.963 37.9362 523.215 37.9362H532.06C532.312 37.9362 532.514 38.037 532.665 38.2386C532.867 38.3898 532.968 38.5914 532.968 38.8434V73.317C532.968 79.9194 531.052 84.6318 527.222 87.4542C523.442 90.2766 518.553 91.6878 512.556 91.6878C510.792 91.6878 508.826 91.5618 506.659 91.3098C506.155 91.2594 505.903 90.9318 505.903 90.327L506.205 82.5402C506.205 81.885 506.558 81.6078 507.264 81.7086C509.078 82.011 510.741 82.1622 512.253 82.1622C515.479 82.1622 517.948 81.4566 519.662 80.0454C521.426 78.6342 522.308 76.3662 522.308 73.2414C522.308 73.0902 522.258 73.0146 522.157 73.0146C522.056 72.9642 521.955 72.9894 521.854 73.0902C519.939 75.1566 517.142 76.1898 513.463 76.1898C510.187 76.1898 507.163 75.4086 504.391 73.8462C501.669 72.2334 499.729 69.663 498.57 66.135C497.814 63.8166 497.436 60.8178 497.436 57.1386C497.436 53.2074 497.889 50.007 498.796 47.5374C499.855 44.463 501.644 41.9934 504.164 40.1286C506.684 38.2638 509.607 37.3314 512.934 37.3314C516.814 37.3314 519.788 38.4906 521.854 40.809C521.955 40.9098 522.056 40.9602 522.157 40.9602C522.258 40.9098 522.308 40.809 522.308 40.6578V38.8434ZM521.703 63.2622C522.106 61.7502 522.308 59.6838 522.308 57.063C522.308 55.5006 522.258 54.291 522.157 53.4342C522.056 52.5774 521.88 51.771 521.628 51.015C521.174 49.6542 520.418 48.5706 519.36 47.7642C518.301 46.9074 516.991 46.479 515.428 46.479C513.916 46.479 512.631 46.9074 511.573 47.7642C510.514 48.5706 509.733 49.6542 509.229 51.015C508.524 52.527 508.171 54.5682 508.171 57.1386C508.171 59.961 508.473 61.977 509.078 63.1866C509.532 64.5474 510.313 65.6562 511.422 66.513C512.581 67.3194 513.942 67.7226 515.504 67.7226C517.117 67.7226 518.452 67.3194 519.511 66.513C520.569 65.6562 521.3 64.5726 521.703 63.2622ZM541.485 76.7946C541.233 76.7946 541.006 76.719 540.805 76.5678C540.653 76.3662 540.578 76.1394 540.578 75.8874V24.7818C540.578 24.5298 540.653 24.3282 540.805 24.177C541.006 23.9754 541.233 23.8746 541.485 23.8746H550.33C550.582 23.8746 550.784 23.9754 550.935 24.177C551.137 24.3282 551.237 24.5298 551.237 24.7818V75.8874C551.237 76.1394 551.137 76.3662 550.935 76.5678C550.784 76.719 550.582 76.7946 550.33 76.7946H541.485ZM576.196 77.3994C571.962 77.3994 568.334 76.2906 565.31 74.073C562.286 71.8554 560.219 68.8314 559.11 65.001C558.405 62.6322 558.052 60.0618 558.052 57.2898C558.052 54.3162 558.405 51.645 559.11 49.2762C560.27 45.5466 562.361 42.6234 565.385 40.5066C568.409 38.3898 572.038 37.3314 576.272 37.3314C580.404 37.3314 583.932 38.3898 586.856 40.5066C589.779 42.573 591.845 45.471 593.055 49.2006C593.861 51.7206 594.264 54.3666 594.264 57.1386C594.264 59.8602 593.912 62.4054 593.206 64.7742C592.097 68.7054 590.031 71.805 587.007 74.073C584.033 76.2906 580.43 77.3994 576.196 77.3994ZM576.196 68.2518C577.859 68.2518 579.27 67.7478 580.43 66.7398C581.589 65.7318 582.42 64.3458 582.924 62.5818C583.328 60.969 583.529 59.205 583.529 57.2898C583.529 55.173 583.328 53.3838 582.924 51.9222C582.37 50.2086 581.513 48.873 580.354 47.9154C579.195 46.9578 577.784 46.479 576.12 46.479C574.407 46.479 572.97 46.9578 571.811 47.9154C570.702 48.873 569.896 50.2086 569.392 51.9222C568.989 53.1318 568.787 54.921 568.787 57.2898C568.787 59.5578 568.964 61.3218 569.316 62.5818C569.82 64.3458 570.652 65.7318 571.811 66.7398C573.021 67.7478 574.482 68.2518 576.196 68.2518ZM608.653 76.7946C608.098 76.7946 607.745 76.5426 607.594 76.0386L596.708 38.919L596.632 38.6166C596.632 38.1126 596.909 37.8606 597.464 37.8606H606.611C607.166 37.8606 607.519 38.1126 607.67 38.6166L613.113 61.4478C613.163 61.599 613.239 61.6746 613.34 61.6746C613.441 61.6746 613.516 61.599 613.567 61.4478L619.237 38.6166C619.388 38.1126 619.741 37.8606 620.295 37.8606H628.233C628.787 37.8606 629.14 38.1126 629.291 38.6166L635.264 61.5234C635.314 61.6746 635.39 61.7502 635.491 61.7502C635.591 61.7502 635.667 61.6746 635.717 61.5234L641.614 38.6166C641.765 38.1126 642.118 37.8606 642.673 37.8606L651.745 38.0118C652.047 38.0118 652.249 38.1126 652.349 38.3142C652.501 38.4654 652.551 38.6922 652.501 38.9946L641.463 76.0386C641.312 76.5426 640.984 76.7946 640.48 76.7946H631.333C630.778 76.7946 630.425 76.5426 630.274 76.0386L624.453 55.7778C624.403 55.6266 624.327 55.551 624.226 55.551C624.125 55.551 624.05 55.6266 623.999 55.7778L618.859 76.0386C618.707 76.5426 618.355 76.7946 617.8 76.7946H608.653ZM249.537 123.115C249.537 123.367 249.436 123.594 249.234 123.795C249.083 123.947 248.882 124.022 248.63 124.022H223.908C223.656 124.022 223.53 124.148 223.53 124.4V136.118C223.53 136.37 223.656 136.496 223.908 136.496H240.162C240.414 136.496 240.616 136.597 240.767 136.799C240.969 136.95 241.069 137.151 241.069 137.403V144.737C241.069 144.989 240.969 145.215 240.767 145.417C240.616 145.568 240.414 145.644 240.162 145.644H223.908C223.656 145.644 223.53 145.77 223.53 146.022V166.887C223.53 167.139 223.429 167.366 223.228 167.568C223.077 167.719 222.875 167.795 222.623 167.795H213.778C213.526 167.795 213.299 167.719 213.097 167.568C212.946 167.366 212.871 167.139 212.871 166.887V115.782C212.871 115.53 212.946 115.328 213.097 115.177C213.299 114.975 213.526 114.875 213.778 114.875H248.63C248.882 114.875 249.083 114.975 249.234 115.177C249.436 115.328 249.537 115.53 249.537 115.782V123.115ZM271.633 128.407C273.447 128.407 274.883 128.76 275.942 129.465C276.345 129.667 276.496 130.045 276.395 130.599L274.808 139.218C274.757 139.823 274.405 139.999 273.749 139.747C272.993 139.495 272.111 139.369 271.103 139.369C270.7 139.369 270.146 139.419 269.44 139.52C267.626 139.671 266.089 140.352 264.829 141.561C263.569 142.721 262.939 144.283 262.939 146.249V166.887C262.939 167.139 262.838 167.366 262.636 167.568C262.485 167.719 262.283 167.795 262.031 167.795H253.186C252.934 167.795 252.707 167.719 252.506 167.568C252.355 167.366 252.279 167.139 252.279 166.887V129.843C252.279 129.591 252.355 129.39 252.506 129.239C252.707 129.037 252.934 128.936 253.186 128.936H262.031C262.283 128.936 262.485 129.037 262.636 129.239C262.838 129.39 262.939 129.591 262.939 129.843V132.716C262.939 132.867 262.989 132.968 263.09 133.019C263.191 133.069 263.266 133.044 263.317 132.943C265.383 129.919 268.155 128.407 271.633 128.407ZM314.658 144.359C314.96 146.274 315.061 148.416 314.96 150.785C314.91 151.389 314.582 151.692 313.977 151.692H290.617C290.315 151.692 290.214 151.818 290.315 152.07C290.466 153.078 290.743 154.086 291.146 155.094C292.457 157.916 295.128 159.327 299.16 159.327C302.385 159.277 304.931 157.967 306.795 155.396C306.997 155.094 307.224 154.943 307.476 154.943C307.627 154.943 307.803 155.043 308.005 155.245L313.448 160.613C313.7 160.865 313.826 161.091 313.826 161.293C313.826 161.394 313.725 161.595 313.524 161.898C311.861 163.964 309.719 165.577 307.098 166.736C304.477 167.845 301.604 168.399 298.479 168.399C294.145 168.399 290.466 167.417 287.442 165.451C284.468 163.485 282.326 160.739 281.016 157.211C279.957 154.691 279.428 151.389 279.428 147.307C279.428 144.535 279.806 142.091 280.562 139.974C281.721 136.395 283.737 133.548 286.61 131.431C289.533 129.314 292.986 128.256 296.967 128.256C302.007 128.256 306.039 129.717 309.063 132.641C312.138 135.564 314.003 139.47 314.658 144.359ZM297.043 137.479C293.868 137.479 291.776 138.966 290.768 141.939C290.567 142.595 290.39 143.401 290.239 144.359C290.239 144.611 290.365 144.737 290.617 144.737H303.696C303.998 144.737 304.099 144.611 303.998 144.359C303.746 142.897 303.62 142.191 303.62 142.242C303.167 140.73 302.36 139.571 301.201 138.764C300.092 137.907 298.706 137.479 297.043 137.479ZM355.928 144.359C356.23 146.274 356.331 148.416 356.23 150.785C356.18 151.389 355.852 151.692 355.247 151.692H331.887C331.585 151.692 331.484 151.818 331.585 152.07C331.736 153.078 332.013 154.086 332.416 155.094C333.727 157.916 336.398 159.327 340.43 159.327C343.655 159.277 346.201 157.967 348.065 155.396C348.267 155.094 348.494 154.943 348.746 154.943C348.897 154.943 349.073 155.043 349.275 155.245L354.718 160.613C354.97 160.865 355.096 161.091 355.096 161.293C355.096 161.394 354.995 161.595 354.794 161.898C353.131 163.964 350.989 165.577 348.368 166.736C345.747 167.845 342.874 168.399 339.749 168.399C335.415 168.399 331.736 167.417 328.712 165.451C325.738 163.485 323.596 160.739 322.286 157.211C321.227 154.691 320.698 151.389 320.698 147.307C320.698 144.535 321.076 142.091 321.832 139.974C322.991 136.395 325.007 133.548 327.88 131.431C330.803 129.314 334.256 128.256 338.237 128.256C343.277 128.256 347.309 129.717 350.333 132.641C353.408 135.564 355.273 139.47 355.928 144.359ZM338.313 137.479C335.138 137.479 333.046 138.966 332.038 141.939C331.837 142.595 331.66 143.401 331.509 144.359C331.509 144.611 331.635 144.737 331.887 144.737H344.966C345.268 144.737 345.369 144.611 345.268 144.359C345.016 142.897 344.89 142.191 344.89 142.242C344.437 140.73 343.63 139.571 342.471 138.764C341.362 137.907 339.976 137.479 338.313 137.479ZM393.432 128.331C396.708 128.331 399.632 128.911 402.202 130.07C404.772 131.179 406.763 132.716 408.174 134.682C409.636 136.647 410.367 138.84 410.367 141.259V166.887C410.367 167.139 410.266 167.366 410.064 167.568C409.913 167.719 409.712 167.795 409.46 167.795H400.614C400.362 167.795 400.136 167.719 399.934 167.568C399.783 167.366 399.707 167.139 399.707 166.887V164.393C399.707 164.241 399.657 164.141 399.556 164.09C399.455 164.04 399.354 164.09 399.254 164.241C397.137 167.013 393.735 168.399 389.048 168.399C385.116 168.399 381.941 167.442 379.522 165.527C377.103 163.611 375.893 160.789 375.893 157.059C375.893 153.179 377.254 150.18 379.976 148.063C382.697 145.896 386.578 144.812 391.618 144.812H399.329C399.581 144.812 399.707 144.686 399.707 144.434V142.771C399.707 141.108 399.203 139.823 398.195 138.915C397.187 137.958 395.675 137.479 393.659 137.479C392.097 137.479 390.786 137.756 389.728 138.311C388.72 138.865 388.065 139.646 387.762 140.654C387.611 141.209 387.284 141.461 386.78 141.41L377.632 140.201C377.027 140.1 376.75 139.873 376.8 139.52C377.002 137.403 377.834 135.488 379.295 133.775C380.807 132.061 382.773 130.725 385.192 129.768C387.662 128.81 390.408 128.331 393.432 128.331ZM391.92 160.461C394.088 160.461 395.927 159.882 397.439 158.723C398.951 157.563 399.707 156.077 399.707 154.262V151.541C399.707 151.289 399.581 151.163 399.329 151.163H393.886C391.618 151.163 389.829 151.591 388.518 152.448C387.258 153.305 386.628 154.514 386.628 156.077C386.628 157.437 387.107 158.521 388.065 159.327C389.022 160.083 390.308 160.461 391.92 160.461ZM438.136 128.331C442.168 128.331 445.419 129.566 447.889 132.036C450.358 134.505 451.593 137.857 451.593 142.091V166.887C451.593 167.139 451.492 167.366 451.291 167.568C451.139 167.719 450.938 167.795 450.686 167.795H441.841C441.589 167.795 441.362 167.719 441.16 167.568C441.009 167.366 440.933 167.139 440.933 166.887V144.283C440.933 142.267 440.354 140.629 439.195 139.369C438.086 138.109 436.599 137.479 434.734 137.479C432.869 137.479 431.357 138.109 430.198 139.369C429.089 140.629 428.535 142.267 428.535 144.283V166.887C428.535 167.139 428.434 167.366 428.233 167.568C428.081 167.719 427.88 167.795 427.628 167.795H418.783C418.531 167.795 418.304 167.719 418.102 167.568C417.951 167.366 417.875 167.139 417.875 166.887V129.843C417.875 129.591 417.951 129.39 418.102 129.239C418.304 129.037 418.531 128.936 418.783 128.936H427.628C427.88 128.936 428.081 129.037 428.233 129.239C428.434 129.39 428.535 129.591 428.535 129.843V132.489C428.535 132.641 428.585 132.741 428.686 132.792C428.787 132.842 428.863 132.817 428.913 132.716C430.979 129.793 434.054 128.331 438.136 128.331ZM483.114 115.782C483.114 115.53 483.19 115.328 483.341 115.177C483.543 114.975 483.769 114.875 484.021 114.875H492.867C493.119 114.875 493.32 114.975 493.471 115.177C493.673 115.328 493.774 115.53 493.774 115.782V166.887C493.774 167.139 493.673 167.366 493.471 167.568C493.32 167.719 493.119 167.795 492.867 167.795H484.021C483.769 167.795 483.543 167.719 483.341 167.568C483.19 167.366 483.114 167.139 483.114 166.887V164.393C483.114 164.241 483.064 164.166 482.963 164.166C482.862 164.115 482.761 164.141 482.661 164.241C480.544 167.013 477.646 168.399 473.967 168.399C470.439 168.399 467.389 167.417 464.819 165.451C462.299 163.485 460.485 160.789 459.376 157.362C458.519 154.741 458.091 151.692 458.091 148.214C458.091 144.636 458.544 141.511 459.451 138.84C460.611 135.614 462.425 133.069 464.895 131.204C467.415 129.289 470.514 128.331 474.193 128.331C477.822 128.331 480.645 129.591 482.661 132.111C482.761 132.263 482.862 132.313 482.963 132.263C483.064 132.212 483.114 132.111 483.114 131.96V115.782ZM481.527 156.001C482.535 154.136 483.039 151.591 483.039 148.365C483.039 144.989 482.484 142.343 481.375 140.427C480.216 138.462 478.528 137.479 476.31 137.479C473.941 137.479 472.152 138.462 470.943 140.427C469.683 142.393 469.053 145.064 469.053 148.441C469.053 151.465 469.582 153.985 470.64 156.001C471.9 158.168 473.765 159.252 476.235 159.252C478.503 159.252 480.267 158.168 481.527 156.001ZM539.104 128.861C539.356 128.861 539.557 128.961 539.708 129.163C539.91 129.314 540.011 129.516 540.011 129.768V136.95C540.011 137.202 539.91 137.429 539.708 137.63C539.557 137.781 539.356 137.857 539.104 137.857H531.77C531.518 137.857 531.392 137.983 531.392 138.235V166.887C531.392 167.139 531.292 167.366 531.09 167.568C530.939 167.719 530.737 167.795 530.485 167.795H521.64C521.388 167.795 521.161 167.719 520.96 167.568C520.808 167.366 520.733 167.139 520.733 166.887V138.235C520.733 137.983 520.607 137.857 520.355 137.857H515.894C515.642 137.857 515.416 137.781 515.214 137.63C515.063 137.429 514.987 137.202 514.987 136.95V129.768C514.987 129.516 515.063 129.314 515.214 129.163C515.416 128.961 515.642 128.861 515.894 128.861H520.355C520.607 128.861 520.733 128.735 520.733 128.483V126.819C520.733 123.695 521.212 121.275 522.169 119.562C523.127 117.798 524.664 116.563 526.781 115.857C528.948 115.101 531.922 114.774 535.702 114.875H538.574C538.826 114.875 539.028 114.975 539.179 115.177C539.381 115.328 539.482 115.53 539.482 115.782V121.905C539.482 122.157 539.381 122.384 539.179 122.586C539.028 122.737 538.826 122.813 538.574 122.813H536.08C534.316 122.863 533.081 123.241 532.375 123.947C531.72 124.602 531.392 125.837 531.392 127.651V128.483C531.392 128.735 531.518 128.861 531.77 128.861H539.104ZM561.17 128.331C564.446 128.331 567.369 128.911 569.94 130.07C572.51 131.179 574.501 132.716 575.912 134.682C577.374 136.647 578.104 138.84 578.104 141.259V166.887C578.104 167.139 578.004 167.366 577.802 167.568C577.651 167.719 577.449 167.795 577.197 167.795H568.352C568.1 167.795 567.873 167.719 567.672 167.568C567.52 167.366 567.445 167.139 567.445 166.887V164.393C567.445 164.241 567.394 164.141 567.294 164.09C567.193 164.04 567.092 164.09 566.991 164.241C564.874 167.013 561.472 168.399 556.785 168.399C552.854 168.399 549.679 167.442 547.26 165.527C544.84 163.611 543.631 160.789 543.631 157.059C543.631 153.179 544.992 150.18 547.713 148.063C550.435 145.896 554.316 144.812 559.356 144.812H567.067C567.319 144.812 567.445 144.686 567.445 144.434V142.771C567.445 141.108 566.941 139.823 565.933 138.915C564.925 137.958 563.413 137.479 561.397 137.479C559.834 137.479 558.524 137.756 557.466 138.311C556.458 138.865 555.802 139.646 555.5 140.654C555.349 141.209 555.021 141.461 554.517 141.41L545.37 140.201C544.765 140.1 544.488 139.873 544.538 139.52C544.74 137.403 545.571 135.488 547.033 133.775C548.545 132.061 550.51 130.725 552.93 129.768C555.399 128.81 558.146 128.331 561.17 128.331ZM559.658 160.461C561.825 160.461 563.665 159.882 565.177 158.723C566.689 157.563 567.445 156.077 567.445 154.262V151.541C567.445 151.289 567.319 151.163 567.067 151.163H561.624C559.356 151.163 557.566 151.591 556.256 152.448C554.996 153.305 554.366 154.514 554.366 156.077C554.366 157.437 554.845 158.521 555.802 159.327C556.76 160.083 558.045 160.461 559.658 160.461ZM591.359 124.551C589.645 124.551 588.209 123.997 587.049 122.888C585.941 121.729 585.386 120.293 585.386 118.579C585.386 116.815 585.941 115.379 587.049 114.27C588.158 113.161 589.595 112.607 591.359 112.607C593.123 112.607 594.559 113.161 595.668 114.27C596.777 115.379 597.331 116.815 597.331 118.579C597.331 120.293 596.751 121.729 595.592 122.888C594.483 123.997 593.072 124.551 591.359 124.551ZM586.823 167.795C586.571 167.795 586.344 167.719 586.142 167.568C585.991 167.366 585.915 167.139 585.915 166.887V129.768C585.915 129.516 585.991 129.314 586.142 129.163C586.344 128.961 586.571 128.861 586.823 128.861H595.668C595.92 128.861 596.121 128.961 596.273 129.163C596.474 129.314 596.575 129.516 596.575 129.768V166.887C596.575 167.139 596.474 167.366 596.273 167.568C596.121 167.719 595.92 167.795 595.668 167.795H586.823ZM624.236 128.407C626.05 128.407 627.487 128.76 628.545 129.465C628.948 129.667 629.099 130.045 628.999 130.599L627.411 139.218C627.361 139.823 627.008 139.999 626.353 139.747C625.597 139.495 624.715 139.369 623.707 139.369C623.303 139.369 622.749 139.419 622.043 139.52C620.229 139.671 618.692 140.352 617.432 141.561C616.172 142.721 615.542 144.283 615.542 146.249V166.887C615.542 167.139 615.441 167.366 615.239 167.568C615.088 167.719 614.887 167.795 614.635 167.795H605.789C605.537 167.795 605.311 167.719 605.109 167.568C604.958 167.366 604.882 167.139 604.882 166.887V129.843C604.882 129.591 604.958 129.39 605.109 129.239C605.311 129.037 605.537 128.936 605.789 128.936H614.635C614.887 128.936 615.088 129.037 615.239 129.239C615.441 129.39 615.542 129.591 615.542 129.843V132.716C615.542 132.867 615.592 132.968 615.693 133.019C615.794 133.069 615.869 133.044 615.92 132.943C617.986 129.919 620.758 128.407 624.236 128.407ZM227.159 258.719C226.907 258.719 226.68 258.643 226.479 258.492C226.327 258.291 226.252 258.064 226.252 257.812V238.685C226.252 238.483 226.227 238.332 226.176 238.231L210.603 206.933C210.502 206.731 210.451 206.58 210.451 206.479C210.451 206.076 210.729 205.875 211.283 205.875H220.809C221.313 205.875 221.665 206.101 221.867 206.555L231.317 226.665C231.468 226.967 231.619 226.967 231.771 226.665L241.221 206.555C241.422 206.101 241.775 205.875 242.279 205.875H251.956C252.309 205.875 252.536 205.975 252.636 206.177C252.787 206.328 252.787 206.58 252.636 206.933L236.911 238.231C236.861 238.332 236.836 238.483 236.836 238.685V257.812C236.836 258.064 236.735 258.291 236.533 258.492C236.382 258.643 236.181 258.719 235.929 258.719H227.159ZM270.031 259.399C265.797 259.399 262.168 258.291 259.144 256.073C256.12 253.855 254.054 250.831 252.945 247.001C252.24 244.632 251.887 242.062 251.887 239.29C251.887 236.316 252.24 233.645 252.945 231.276C254.104 227.547 256.196 224.623 259.22 222.507C262.244 220.39 265.873 219.331 270.106 219.331C274.239 219.331 277.767 220.39 280.69 222.507C283.614 224.573 285.68 227.471 286.89 231.201C287.696 233.721 288.099 236.367 288.099 239.139C288.099 241.86 287.746 244.405 287.041 246.774C285.932 250.705 283.866 253.805 280.842 256.073C277.868 258.291 274.264 259.399 270.031 259.399ZM270.031 250.252C271.694 250.252 273.105 249.748 274.264 248.74C275.424 247.732 276.255 246.346 276.759 244.582C277.162 242.969 277.364 241.205 277.364 239.29C277.364 237.173 277.162 235.384 276.759 233.922C276.205 232.209 275.348 230.873 274.189 229.915C273.03 228.958 271.618 228.479 269.955 228.479C268.242 228.479 266.805 228.958 265.646 229.915C264.537 230.873 263.731 232.209 263.227 233.922C262.824 235.132 262.622 236.921 262.622 239.29C262.622 241.558 262.798 243.322 263.151 244.582C263.655 246.346 264.487 247.732 265.646 248.74C266.856 249.748 268.317 250.252 270.031 250.252ZM317.632 220.843C317.632 220.591 317.707 220.39 317.858 220.239C318.06 220.037 318.287 219.936 318.539 219.936H327.384C327.636 219.936 327.838 220.037 327.989 220.239C328.19 220.39 328.291 220.591 328.291 220.843V257.887C328.291 258.139 328.19 258.366 327.989 258.568C327.838 258.719 327.636 258.795 327.384 258.795H318.539C318.287 258.795 318.06 258.719 317.858 258.568C317.707 258.366 317.632 258.139 317.632 257.887V255.317C317.632 255.166 317.581 255.09 317.48 255.09C317.38 255.04 317.279 255.09 317.178 255.241C315.162 257.963 312.037 259.324 307.804 259.324C303.973 259.324 300.823 258.165 298.354 255.846C295.884 253.528 294.649 250.277 294.649 246.094V220.843C294.649 220.591 294.725 220.39 294.876 220.239C295.078 220.037 295.304 219.936 295.556 219.936H304.326C304.578 219.936 304.78 220.037 304.931 220.239C305.132 220.39 305.233 220.591 305.233 220.843V243.448C305.233 245.464 305.762 247.102 306.821 248.362C307.93 249.622 309.442 250.252 311.357 250.252C313.07 250.252 314.482 249.748 315.59 248.74C316.699 247.681 317.38 246.321 317.632 244.657V220.843ZM366.78 219.331C370.056 219.331 372.98 219.911 375.55 221.07C378.12 222.179 380.111 223.716 381.522 225.682C382.984 227.647 383.715 229.84 383.715 232.259V257.887C383.715 258.139 383.614 258.366 383.412 258.568C383.261 258.719 383.06 258.795 382.808 258.795H373.962C373.71 258.795 373.484 258.719 373.282 258.568C373.131 258.366 373.055 258.139 373.055 257.887V255.393C373.055 255.241 373.005 255.141 372.904 255.09C372.803 255.04 372.702 255.09 372.602 255.241C370.485 258.013 367.083 259.399 362.396 259.399C358.464 259.399 355.289 258.442 352.87 256.527C350.451 254.611 349.241 251.789 349.241 248.059C349.241 244.179 350.602 241.18 353.324 239.063C356.045 236.896 359.926 235.812 364.966 235.812H372.677C372.929 235.812 373.055 235.686 373.055 235.434V233.771C373.055 232.108 372.551 230.823 371.543 229.915C370.535 228.958 369.023 228.479 367.007 228.479C365.445 228.479 364.134 228.756 363.076 229.311C362.068 229.865 361.413 230.646 361.11 231.654C360.959 232.209 360.632 232.461 360.128 232.41L350.98 231.201C350.375 231.1 350.098 230.873 350.148 230.52C350.35 228.403 351.182 226.488 352.643 224.775C354.155 223.061 356.121 221.725 358.54 220.768C361.01 219.81 363.756 219.331 366.78 219.331ZM365.268 251.461C367.436 251.461 369.275 250.882 370.787 249.723C372.299 248.563 373.055 247.077 373.055 245.262V242.541C373.055 242.289 372.929 242.163 372.677 242.163H367.234C364.966 242.163 363.177 242.591 361.866 243.448C360.606 244.305 359.976 245.514 359.976 247.077C359.976 248.437 360.455 249.521 361.413 250.327C362.37 251.083 363.656 251.461 365.268 251.461ZM410.577 219.407C412.392 219.407 413.828 219.76 414.886 220.465C415.29 220.667 415.441 221.045 415.34 221.599L413.752 230.218C413.702 230.823 413.349 230.999 412.694 230.747C411.938 230.495 411.056 230.369 410.048 230.369C409.645 230.369 409.09 230.419 408.385 230.52C406.57 230.671 405.033 231.352 403.773 232.561C402.513 233.721 401.883 235.283 401.883 237.249V257.887C401.883 258.139 401.782 258.366 401.581 258.568C401.43 258.719 401.228 258.795 400.976 258.795H392.131C391.879 258.795 391.652 258.719 391.45 258.568C391.299 258.366 391.224 258.139 391.224 257.887V220.843C391.224 220.591 391.299 220.39 391.45 220.239C391.652 220.037 391.879 219.936 392.131 219.936H400.976C401.228 219.936 401.43 220.037 401.581 220.239C401.782 220.39 401.883 220.591 401.883 220.843V223.716C401.883 223.867 401.934 223.968 402.034 224.019C402.135 224.069 402.211 224.044 402.261 223.943C404.328 220.919 407.1 219.407 410.577 219.407ZM453.602 235.359C453.905 237.274 454.006 239.416 453.905 241.785C453.854 242.389 453.527 242.692 452.922 242.692H429.562C429.259 242.692 429.158 242.818 429.259 243.07C429.41 244.078 429.688 245.086 430.091 246.094C431.401 248.916 434.072 250.327 438.104 250.327C441.33 250.277 443.875 248.967 445.74 246.396C445.942 246.094 446.168 245.943 446.42 245.943C446.572 245.943 446.748 246.043 446.95 246.245L452.393 251.613C452.645 251.865 452.771 252.091 452.771 252.293C452.771 252.394 452.67 252.595 452.468 252.898C450.805 254.964 448.663 256.577 446.042 257.736C443.422 258.845 440.549 259.399 437.424 259.399C433.09 259.399 429.41 258.417 426.386 256.451C423.413 254.485 421.271 251.739 419.96 248.211C418.902 245.691 418.373 242.389 418.373 238.307C418.373 235.535 418.751 233.091 419.507 230.974C420.666 227.395 422.682 224.548 425.555 222.431C428.478 220.314 431.93 219.256 435.912 219.256C440.952 219.256 444.984 220.717 448.008 223.641C451.082 226.564 452.947 230.47 453.602 235.359ZM435.988 228.479C432.812 228.479 430.721 229.966 429.713 232.939C429.511 233.595 429.335 234.401 429.184 235.359C429.184 235.611 429.31 235.737 429.562 235.737H442.64C442.943 235.737 443.044 235.611 442.943 235.359C442.691 233.897 442.565 233.191 442.565 233.242C442.111 231.73 441.305 230.571 440.146 229.764C439.037 228.907 437.651 228.479 435.988 228.479ZM510.007 229.84C510.965 232.461 511.443 235.585 511.443 239.214C511.443 242.692 511.015 245.741 510.158 248.362C508.999 251.789 507.134 254.485 504.564 256.451C502.044 258.417 499.045 259.399 495.567 259.399C491.888 259.399 488.99 258.013 486.873 255.241C486.773 255.141 486.672 255.115 486.571 255.166C486.47 255.166 486.42 255.241 486.42 255.393V257.887C486.42 258.139 486.319 258.366 486.117 258.568C485.966 258.719 485.765 258.795 485.513 258.795H476.667C476.415 258.795 476.189 258.719 475.987 258.568C475.836 258.366 475.76 258.139 475.76 257.887V206.782C475.76 206.53 475.836 206.328 475.987 206.177C476.189 205.975 476.415 205.875 476.667 205.875H485.513C485.765 205.875 485.966 205.975 486.117 206.177C486.319 206.328 486.42 206.53 486.42 206.782V222.96C486.42 223.111 486.47 223.212 486.571 223.263C486.672 223.313 486.773 223.263 486.873 223.111C488.839 220.591 491.636 219.331 495.265 219.331C498.944 219.331 502.019 220.289 504.488 222.204C507.008 224.069 508.848 226.614 510.007 229.84ZM498.818 247.001C499.877 245.086 500.406 242.566 500.406 239.441C500.406 235.963 499.801 233.292 498.591 231.427C497.382 229.462 495.593 228.479 493.224 228.479C491.006 228.479 489.318 229.462 488.159 231.427C487.05 233.343 486.495 235.989 486.495 239.365C486.495 242.742 486.999 245.287 488.007 247.001C489.217 249.168 490.981 250.252 493.299 250.252C495.769 250.252 497.609 249.168 498.818 247.001ZM552.606 235.359C552.908 237.274 553.009 239.416 552.908 241.785C552.858 242.389 552.53 242.692 551.926 242.692H528.565C528.263 242.692 528.162 242.818 528.263 243.07C528.414 244.078 528.691 245.086 529.094 246.094C530.405 248.916 533.076 250.327 537.108 250.327C540.334 250.277 542.879 248.967 544.744 246.396C544.945 246.094 545.172 245.943 545.424 245.943C545.575 245.943 545.752 246.043 545.953 246.245L551.396 251.613C551.648 251.865 551.774 252.091 551.774 252.293C551.774 252.394 551.674 252.595 551.472 252.898C549.809 254.964 547.667 256.577 545.046 257.736C542.425 258.845 539.552 259.399 536.428 259.399C532.093 259.399 528.414 258.417 525.39 256.451C522.416 254.485 520.274 251.739 518.964 248.211C517.906 245.691 517.376 242.389 517.376 238.307C517.376 235.535 517.754 233.091 518.51 230.974C519.67 227.395 521.686 224.548 524.558 222.431C527.482 220.314 530.934 219.256 534.916 219.256C539.956 219.256 543.988 220.717 547.012 223.641C550.086 226.564 551.951 230.47 552.606 235.359ZM534.991 228.479C531.816 228.479 529.724 229.966 528.716 232.939C528.515 233.595 528.338 234.401 528.187 235.359C528.187 235.611 528.313 235.737 528.565 235.737H541.644C541.946 235.737 542.047 235.611 541.946 235.359C541.694 233.897 541.568 233.191 541.568 233.242C541.115 231.73 540.308 230.571 539.149 229.764C538.04 228.907 536.654 228.479 534.991 228.479ZM574.607 219.331C577.883 219.331 580.806 219.911 583.376 221.07C585.947 222.179 587.937 223.716 589.349 225.682C590.81 227.647 591.541 229.84 591.541 232.259V257.887C591.541 258.139 591.44 258.366 591.239 258.568C591.087 258.719 590.886 258.795 590.634 258.795H581.789C581.537 258.795 581.31 258.719 581.108 258.568C580.957 258.366 580.881 258.139 580.881 257.887V255.393C580.881 255.241 580.831 255.141 580.73 255.09C580.629 255.04 580.529 255.09 580.428 255.241C578.311 258.013 574.909 259.399 570.222 259.399C566.291 259.399 563.115 258.442 560.696 256.527C558.277 254.611 557.067 251.789 557.067 248.059C557.067 244.179 558.428 241.18 561.15 239.063C563.871 236.896 567.752 235.812 572.792 235.812H580.503C580.755 235.812 580.881 235.686 580.881 235.434V233.771C580.881 232.108 580.377 230.823 579.369 229.915C578.361 228.958 576.849 228.479 574.833 228.479C573.271 228.479 571.961 228.756 570.902 229.311C569.894 229.865 569.239 230.646 568.937 231.654C568.785 232.209 568.458 232.461 567.954 232.41L558.806 231.201C558.201 231.1 557.924 230.873 557.975 230.52C558.176 228.403 559.008 226.488 560.469 224.775C561.981 223.061 563.947 221.725 566.366 220.768C568.836 219.81 571.583 219.331 574.607 219.331ZM573.095 251.461C575.262 251.461 577.101 250.882 578.613 249.723C580.125 248.563 580.881 247.077 580.881 245.262V242.541C580.881 242.289 580.755 242.163 580.503 242.163H575.06C572.792 242.163 571.003 242.591 569.693 243.448C568.433 244.305 567.803 245.514 567.803 247.077C567.803 248.437 568.281 249.521 569.239 250.327C570.197 251.083 571.482 251.461 573.095 251.461ZM621.73 220.843C621.73 220.591 621.805 220.39 621.957 220.239C622.158 220.037 622.385 219.936 622.637 219.936H631.482C631.734 219.936 631.936 220.037 632.087 220.239C632.289 220.39 632.389 220.591 632.389 220.843V257.887C632.389 258.139 632.289 258.366 632.087 258.568C631.936 258.719 631.734 258.795 631.482 258.795H622.637C622.385 258.795 622.158 258.719 621.957 258.568C621.805 258.366 621.73 258.139 621.73 257.887V255.317C621.73 255.166 621.679 255.09 621.579 255.09C621.478 255.04 621.377 255.09 621.276 255.241C619.26 257.963 616.135 259.324 611.902 259.324C608.071 259.324 604.921 258.165 602.452 255.846C599.982 253.528 598.747 250.277 598.747 246.094V220.843C598.747 220.591 598.823 220.39 598.974 220.239C599.176 220.037 599.403 219.936 599.655 219.936H608.424C608.676 219.936 608.878 220.037 609.029 220.239C609.231 220.39 609.331 220.591 609.331 220.843V243.448C609.331 245.464 609.861 247.102 610.919 248.362C612.028 249.622 613.54 250.252 615.455 250.252C617.169 250.252 618.58 249.748 619.689 248.74C620.797 247.681 621.478 246.321 621.73 244.657V220.843ZM662.548 227.572C662.548 227.824 662.447 228.051 662.245 228.252C662.094 228.403 661.893 228.479 661.641 228.479H654.383C654.131 228.479 654.005 228.605 654.005 228.857V244.884C654.005 246.547 654.333 247.782 654.988 248.589C655.693 249.395 656.802 249.798 658.314 249.798H660.809C661.061 249.798 661.263 249.899 661.414 250.101C661.615 250.252 661.716 250.453 661.716 250.705V257.887C661.716 258.442 661.414 258.769 660.809 258.87C658.692 258.971 657.18 259.021 656.273 259.021C652.09 259.021 648.965 258.341 646.899 256.98C644.832 255.569 643.774 252.948 643.723 249.118V228.857C643.723 228.605 643.597 228.479 643.345 228.479H639.036C638.784 228.479 638.557 228.403 638.356 228.252C638.205 228.051 638.129 227.824 638.129 227.572V220.843C638.129 220.591 638.205 220.39 638.356 220.239C638.557 220.037 638.784 219.936 639.036 219.936H643.345C643.597 219.936 643.723 219.81 643.723 219.558V210.562C643.723 210.31 643.799 210.108 643.95 209.957C644.152 209.755 644.379 209.655 644.631 209.655H653.098C653.35 209.655 653.551 209.755 653.703 209.957C653.904 210.108 654.005 210.31 654.005 210.562V219.558C654.005 219.81 654.131 219.936 654.383 219.936H661.641C661.893 219.936 662.094 220.037 662.245 220.239C662.447 220.39 662.548 220.591 662.548 220.843V227.572ZM674.711 215.551C672.997 215.551 671.561 214.997 670.401 213.888C669.293 212.729 668.738 211.293 668.738 209.579C668.738 207.815 669.293 206.379 670.401 205.27C671.51 204.161 672.947 203.607 674.711 203.607C676.475 203.607 677.911 204.161 679.02 205.27C680.129 206.379 680.683 207.815 680.683 209.579C680.683 211.293 680.103 212.729 678.944 213.888C677.835 214.997 676.424 215.551 674.711 215.551ZM670.175 258.795C669.923 258.795 669.696 258.719 669.494 258.568C669.343 258.366 669.267 258.139 669.267 257.887V220.768C669.267 220.516 669.343 220.314 669.494 220.163C669.696 219.961 669.923 219.861 670.175 219.861H679.02C679.272 219.861 679.473 219.961 679.625 220.163C679.826 220.314 679.927 220.516 679.927 220.768V257.887C679.927 258.139 679.826 258.366 679.625 258.568C679.473 258.719 679.272 258.795 679.02 258.795H670.175ZM710.385 219.861C710.637 219.861 710.838 219.961 710.99 220.163C711.191 220.314 711.292 220.516 711.292 220.768V227.95C711.292 228.202 711.191 228.429 710.99 228.63C710.838 228.781 710.637 228.857 710.385 228.857H703.052C702.8 228.857 702.674 228.983 702.674 229.235V257.887C702.674 258.139 702.573 258.366 702.371 258.568C702.22 258.719 702.018 258.795 701.766 258.795H692.921C692.669 258.795 692.442 258.719 692.241 258.568C692.09 258.366 692.014 258.139 692.014 257.887V229.235C692.014 228.983 691.888 228.857 691.636 228.857H687.176C686.924 228.857 686.697 228.781 686.495 228.63C686.344 228.429 686.268 228.202 686.268 227.95V220.768C686.268 220.516 686.344 220.314 686.495 220.163C686.697 219.961 686.924 219.861 687.176 219.861H691.636C691.888 219.861 692.014 219.735 692.014 219.483V217.819C692.014 214.695 692.493 212.275 693.45 210.562C694.408 208.798 695.945 207.563 698.062 206.857C700.229 206.101 703.203 205.774 706.983 205.875H709.856C710.108 205.875 710.309 205.975 710.46 206.177C710.662 206.328 710.763 206.53 710.763 206.782V212.905C710.763 213.157 710.662 213.384 710.46 213.586C710.309 213.737 710.108 213.813 709.856 213.813H707.361C705.597 213.863 704.362 214.241 703.656 214.947C703.001 215.602 702.674 216.837 702.674 218.651V219.483C702.674 219.735 702.8 219.861 703.052 219.861H710.385ZM740.15 220.843C740.15 220.591 740.226 220.39 740.377 220.239C740.578 220.037 740.805 219.936 741.057 219.936H749.902C750.154 219.936 750.356 220.037 750.507 220.239C750.709 220.39 750.81 220.591 750.81 220.843V257.887C750.81 258.139 750.709 258.366 750.507 258.568C750.356 258.719 750.154 258.795 749.902 258.795H741.057C740.805 258.795 740.578 258.719 740.377 258.568C740.226 258.366 740.15 258.139 740.15 257.887V255.317C740.15 255.166 740.1 255.09 739.999 255.09C739.898 255.04 739.797 255.09 739.696 255.241C737.68 257.963 734.556 259.324 730.322 259.324C726.492 259.324 723.342 258.165 720.872 255.846C718.402 253.528 717.168 250.277 717.168 246.094V220.843C717.168 220.591 717.243 220.39 717.394 220.239C717.596 220.037 717.823 219.936 718.075 219.936H726.844C727.096 219.936 727.298 220.037 727.449 220.239C727.651 220.39 727.752 220.591 727.752 220.843V243.448C727.752 245.464 728.281 247.102 729.339 248.362C730.448 249.622 731.96 250.252 733.875 250.252C735.589 250.252 737 249.748 738.109 248.74C739.218 247.681 739.898 246.321 740.15 244.657V220.843ZM759.573 258.795C759.321 258.795 759.095 258.719 758.893 258.568C758.742 258.366 758.666 258.139 758.666 257.887V206.782C758.666 206.53 758.742 206.328 758.893 206.177C759.095 205.975 759.321 205.875 759.573 205.875H768.419C768.671 205.875 768.872 205.975 769.023 206.177C769.225 206.328 769.326 206.53 769.326 206.782V257.887C769.326 258.139 769.225 258.366 769.023 258.568C768.872 258.719 768.671 258.795 768.419 258.795H759.573Z" fill="url(#paint0_linear_80_80)"/>
</g>
<defs>
<linearGradient id="paint0_linear_80_80" x1="202.389" y1="-17.897" x2="660.34" y2="44.396" gradientUnits="userSpaceOnUse">
<stop stop-color="#27915C" stop-opacity="0.63"/>
<stop offset="0.426878" stop-color="#EDED93" stop-opacity="0.86"/>
<stop offset="0.960401" stop-color="#FFFBFB"/>
</linearGradient>
<clipPath id="clip0_80_80">
<rect width="565.2" height="97.8" fill="white" transform="translate(208.259 0.794617)"/>
</clipPath>
</defs>
</svg>
