<svg width="12" height="12" viewBox="0 0 12 12" fill="none" xmlns="http://www.w3.org/2000/svg">
<path fill-rule="evenodd" clip-rule="evenodd" d="M9.62499 5.70395C9.62499 7.99302 7.76933 9.84868 5.48025 9.84868C3.19118 9.84868 1.33552 7.99302 1.33552 5.70395C1.33552 3.41487 3.19118 1.55921 5.48025 1.55921C7.76933 1.55921 9.62499 3.41487 9.62499 5.70395ZM9.64388 9.03021C10.3731 8.11856 10.8092 6.96218 10.8092 5.70395C10.8092 2.76085 8.42335 0.375 5.48025 0.375C2.53716 0.375 0.151306 2.76085 0.151306 5.70395C0.151306 8.64704 2.53716 11.0329 5.48025 11.0329C6.73849 11.0329 7.89487 10.5968 8.80652 9.86757L10.3905 11.4516C10.6218 11.6828 10.9967 11.6828 11.2279 11.4516C11.4591 11.2203 11.4591 10.8454 11.2279 10.6142L9.64388 9.03021Z" fill="white"/>
</svg>
