<svg width="8" height="10" viewBox="0 0 8 10" fill="none" xmlns="http://www.w3.org/2000/svg">
<path d="M4.39888 0.8078C4.60065 0.8078 4.76741 0.957738 4.7938 1.15227L4.79743 1.20635L4.79712 8.21239L7.31785 5.68132C7.47316 5.52534 7.72551 5.5248 7.88149 5.6801C8.02329 5.82129 8.03663 6.04268 7.92119 6.19896L7.8827 6.24374L4.68152 9.45874C4.66105 9.4793 4.63889 9.49716 4.61549 9.51232C4.60845 9.5166 4.60125 9.52095 4.5939 9.52509C4.5876 9.52889 4.58105 9.53232 4.57444 9.53556C4.56482 9.54006 4.55487 9.54445 4.54473 9.54845C4.53691 9.55169 4.5293 9.5544 4.52163 9.55687C4.51212 9.5598 4.50199 9.56266 4.4917 9.56511C4.48452 9.56693 4.47761 9.56838 4.47067 9.56964C4.46034 9.57141 4.44966 9.57292 4.43884 9.574C4.4306 9.57493 4.42243 9.57549 4.41425 9.5758C4.40929 9.57587 4.4041 9.57598 4.39888 9.57598L4.38344 9.57578C4.37562 9.57547 4.3678 9.57494 4.36001 9.57417L4.39888 9.57598C4.37373 9.57598 4.34912 9.57365 4.32527 9.56919C4.31957 9.56816 4.31372 9.56693 4.30789 9.56556C4.29589 9.56273 4.28434 9.55946 4.27301 9.55569C4.26739 9.55384 4.26137 9.55169 4.25541 9.54939C4.24341 9.54473 4.23198 9.53967 4.22085 9.5341C4.21561 9.53151 4.21013 9.52861 4.2047 9.52558C4.19585 9.5206 4.18744 9.51547 4.17924 9.51004C4.17343 9.50621 4.16739 9.50198 4.16145 9.49755L4.15686 9.4941C4.14283 9.48336 4.12953 9.47171 4.11706 9.45924L4.11669 9.45876L0.914979 6.24377C0.759657 6.0878 0.760179 5.83545 0.916146 5.68013C1.05793 5.53893 1.27938 5.52652 1.43516 5.64261L1.47978 5.68129L4.00001 8.21133L4.00033 1.20635C4.00033 0.986239 4.17877 0.8078 4.39888 0.8078Z" fill="black" fill-opacity="0.66"/>
</svg>
