<svg width="165" height="168" viewBox="0 0 165 168" fill="none" xmlns="http://www.w3.org/2000/svg">
<path d="M71.9588 148.804L72.3146 148.449L73.026 147.737L73.3818 147.026L73.7375 146.67L74.449 146.314L75.1604 145.247L75.5162 144.18L76.2276 143.469L77.2948 143.113L78.362 142.757L78.7178 142.401H79.0735L79.4292 141.69L80.8522 140.978L81.9194 140.267H82.9866L83.698 139.556L84.4095 138.844V138.133V137.065V135.643L84.0538 134.931V133.864L83.3423 133.152L82.6308 132.797L80.8522 133.864L81.2079 132.797V128.528L81.5636 127.461L81.9194 126.749L81.5636 126.038L80.8522 125.682H79.785L79.0735 125.326L78.0063 124.615L77.6506 123.192L78.0063 122.125L77.6506 121.413L77.2948 120.702L77.6506 119.99L77.2948 118.923L74.8047 117.856H74.0932L73.026 118.212H71.2474L70.5359 118.568L68.4015 117.856L68.7572 116.077V115.366L68.4015 114.655L68.0458 114.299L68.7572 113.587V112.876L68.4015 111.809V110.386L68.0458 109.674V109.319L69.113 108.251L67.69 107.184L68.0458 106.473L68.7572 105.761L69.113 103.983L69.4687 102.916L69.8244 102.204L70.5359 100.781L69.113 99.0025L68.4015 98.2911L67.69 97.5796L66.6228 97.2239L66.2671 96.1567L65.9114 95.4453L66.2671 94.3781L66.9786 92.9552L67.3343 92.5994H66.9786H66.6228L59.5082 92.2437L58.0853 87.6192H58.7967H59.1525L59.5082 86.9078V86.1963L58.7967 85.1292L59.1525 84.4177V83.7062L58.441 82.9948L57.7295 82.2833H57.0181L55.2394 81.2161H54.5279L53.8165 81.5719H52.7493L51.6821 80.8604L50.9706 80.149H50.2591L49.1919 79.7932L48.4805 79.4375L47.4133 78.726L47.0575 78.0146H46.3461L44.5674 77.3031H42.7887L42.0773 76.9474L41.3658 76.2359L39.9429 75.1688L37.8085 73.3901V72.6787V71.9672V70.9V70.1886L36.7413 68.4099L37.8085 66.6313V65.9198L37.4527 65.2084L36.7413 65.5641H35.6741H34.9626H33.8954H33.1839L32.1167 66.2756L31.761 66.987L30.6938 67.6985H29.9823L28.9151 68.4099L28.5594 69.1214L27.8479 69.4771L26.7807 69.8328L25.7135 71.6115H25.0021L23.9349 71.2558H23.2234H22.5119L20.7333 71.6115L19.6661 71.2558L17.8874 72.3229H17.176L16.4645 71.9672L15.753 71.2558L16.1088 70.1886V67.3428V66.2756V65.5641L15.0416 65.2084L14.3301 65.9198L13.6186 66.2756L12.9072 66.987H12.5514L12.1957 67.3428V67.6985L10.417 68.0542H9.34983L8.63836 66.987C8.40121 66.6313 7.7846 65.9198 7.21543 65.9198L6.50396 65.5641L5.43676 65.9198H4.7253H4.36957L4.7253 65.2084V64.1412L4.01383 63.074L3.30237 62.3626L2.5909 61.6511L2.23517 59.8725L1.5237 59.161L1.16797 58.4496L1.5237 57.3824L2.23517 54.8923L2.5909 54.1808L3.6581 53.8251L4.36957 53.1136L4.7253 52.7579L4.01383 51.335V50.2678L4.36957 49.5564L5.08103 48.4892L5.7925 47.0663L7.21543 45.2876L8.99409 44.5762L9.70556 44.2204H11.4842L12.5514 43.509L14.3301 42.4418H15.3973L16.1088 42.7975L16.8202 42.4418H17.5317L17.8874 42.0861L18.9546 36.3944L19.3104 30.7028L19.6661 29.9913V28.9241L17.5317 26.434H16.8202V22.8768L17.176 21.8096L17.8874 22.1653L18.9546 21.4538L19.6661 22.1653L20.3776 21.8096V21.4538V20.7424L19.3104 20.0309L18.5989 19.6752L17.5317 20.0309V17.1851H22.7076L23.9349 17.5408L24.6463 16.8294V15.7622L25.7135 16.1179L26.425 15.7622H26.7807L27.4922 15.4065H28.2037L28.5594 15.7622L29.6266 17.5408L31.0495 19.3195L31.761 19.6752L32.1167 20.3867L32.8282 20.7424L34.6069 21.4538H35.3183L36.0298 20.7424L36.3855 20.0309L36.7413 19.6752L37.4527 20.7424L38.5199 18.608L40.2986 17.5408L41.0101 17.1851L41.3658 16.1179L42.433 15.4065L43.8559 15.0507L44.9231 14.695L44.5674 13.6278H43.5002H42.0773L41.0101 13.2721V12.2049L41.3658 11.4935L40.6543 10.782L41.0101 9.71482L40.6543 8.64764L39.9429 7.93618L39.2314 7.22473L38.5199 6.869L38.1642 5.80182H39.2314L39.9429 6.15754L41.0101 5.80182L42.0773 6.51327H42.7887L43.5002 6.869L44.2117 7.22473L45.2789 7.58046L45.9903 7.93618L46.7018 7.22473L47.4133 6.51327H47.769H49.1919L49.9034 5.80182L50.9706 6.15754L53.4607 4.73463H54.1722L56.6623 3.66745L57.0181 2.95599L56.3066 1.88881L58.441 0.821625L59.1525 1.17735L59.8639 1.53308V3.31172L59.088 3.73833V4.56596L60.2564 6.23008L60.4202 7.09311L59.8758 9.59814L59.805 12.9441L61.0664 16.3387L62.819 16.9362L63.8237 17.5514L64.762 17.7461H65.4923L67.9929 16.5378H70.2722L71.1751 15.6173L72.016 15.2322H72.9101L73.9192 14.9977L74.0741 15.2632H74.9283L75.7692 15.874L76.8668 15.6704L77.69 15.0419V14.1966L76.7606 13.5416L76.9863 12.6475L78.677 13.0724L79.5799 12.86L80.4208 12.4528H81.1954L81.6955 13.3867L82.6205 13.338L82.886 14.0195L84.7498 14.6455L85.6837 14.183L86.5554 13.587L87.3025 13.7649L88.1742 13.587L89.0548 14.0051L89.8464 14.2008L90.7003 13.5337L92.7906 10.8297L93.1908 9.87799L95.2811 7.04062L95.7169 6.38242L95.3345 5.51075L96.1617 5.69753L96.8911 6.48915L97.3625 7.33414L98.1897 7.67213L98.0118 8.53491L98.2519 9.34432V10.2249L99.1058 11.906L98.8301 12.6709L99.2748 13.5337L99.1058 14.3787L99.426 15.2059L100.066 16.0331H101L101.614 16.4155C101.902 16.6053 102.482 16.9937 102.504 17.0292C102.525 17.0648 102.696 17.2872 102.779 17.3939L103.046 17.9899L103.304 18.7637L102.335 19.4397L101.792 20.3025L100.111 21.9569L99.0436 22.8819L98.1808 23.1843L97.5759 24.0471L96.7398 24.6163L96.1528 25.4791V26.2885L95.7525 27.0446L95.0943 27.9518L94.2493 28.7968L93.5733 29.6329L94.4539 29.7574L97.4247 28.8946L97.8606 27.8984L97.825 27.0446L98.581 26.7866L99.8708 28.4677L100.2 27.4893L99.4972 26.6354L99.7196 25.8527L100.316 25.0878L101.134 24.6163H102.975L103.749 24.8565H104.443L106.239 24.4651L107.236 24.0026L107.876 24.0916L108.739 24.2783L109.94 25.1144L109.37 25.9327L108.917 27.6494L108.428 28.4232L107.929 29.3038L107.093 30.042L106.319 30.2822L105.297 30.042L104.549 30.6825L103.713 31.1183L102.059 30.7447L100.227 31.1183H98.59L97.8873 30.7447L96.7309 30.4868L95.8593 30.9226L95.9215 31.821L96.9889 31.1183L97.8428 31.6342L99.346 31.9544H100.324L101.196 31.5363L102.059 31.8032H102.806L103.713 32.0166H104.549L105.297 31.5808L105.492 32.408L106.319 31.7142L106.649 30.887L107.431 30.7447L108.428 30.042H109.184L109.326 29.2148L110.037 28.3165L110.42 27.4626L111.051 26.7777L111.994 26.3508L112.519 26.7066L113.515 26.9289L114.28 27.5249L115.935 27.9518L116.931 28.6278L119.777 29.8908L120.524 29.704L120.684 29.6507L121.503 30.0776L122.321 30.718L122.535 31.563L123.326 31.1183L124.251 31.3318L124.927 31.9188L125.63 32.9061V33.7511L125.399 34.5961L125.683 35.3877L125.47 36.3127V37.1488L124.758 37.9938L125.585 38.2962L126.288 37.4068L126.706 35.7168L127.605 35.5923C127.714 35.8117 127.951 36.2629 128.023 36.3127C128.094 36.3625 128.793 36.209 129.134 36.1259L129.286 35.9925L130.033 34.4004L131.705 35.3521L132.594 36.1259L133.475 36.3839C133.703 36.458 134.171 36.6098 134.213 36.624C134.256 36.6383 134.842 37.2645 135.129 37.5758L136.081 37.7181L136.828 36.9976C137.315 37.2763 138.305 37.8373 138.376 37.8515C138.447 37.8657 138.975 38.2725 139.23 38.4741L140.191 38.0383L141.053 38.3051L141.534 39.1323L143.544 38.1539H144.078L145.261 38.7232L145.865 39.497L147.048 39.4347L148.525 40.8312L149.752 42.45L151.425 43.1971L151.896 44.14L152.456 45.0383L152.839 45.8122C153.085 46.0582 153.582 46.5575 153.604 46.586C153.625 46.6145 154.816 47.2145 155.409 47.511L156.334 48.2048C156.557 48.2997 157.012 48.5001 157.055 48.5428C157.098 48.5855 157.636 49.1832 157.9 49.4767L158.149 50.2239L159.537 50.0816L162.045 50.8465L163.006 52.5898L162.756 53.4526L162.828 54.2709L163.652 55.8501V56.6848L163.878 57.5645L163.652 59.3015L163.359 61.061L163.652 61.828V62.5499L162.818 64.2192V65.0538L162.006 67.6029L160.652 69.3398L159.975 69.4752L158.78 69.3398L159.231 70.2647V70.3775L159.366 70.8287L158.577 71.7987L157.81 72.7912L156.208 74.0545H155.261L154.629 75.0019L153.727 75.453L152.08 78.8368L150.569 80.1677L149.982 81.0249L149.035 81.4084L148.177 81.273L147.23 80.7767L146.978 81.6367L147.09 82.4786L146.832 83.298C146.435 83.8367 145.635 84.9255 145.608 84.9704C145.581 85.0153 145.47 85.5803 145.417 85.8571L145.518 86.6653L146.506 86.1041L146.394 87.9225L145.608 88.5286L145.126 89.449L145.518 90.1674V91.896L145.799 92.7266V93.6245L145.518 94.5674L145.608 95.2409L145.126 96.1725L144.968 96.947L144.463 97.8225L144.351 98.6083L143.7 99.4052L143.128 101.964V102.874L141.893 104.524L141.455 105.343L141.275 106.129V107.06L141.029 107.756V108.744L140.838 109.451L140.456 110.349L139.491 110.899L138.671 112.325L137.886 112.92L137.717 113.717V114.603L136.842 114.738L135.932 115.535L135.147 115.838L135.203 116.646L133.923 118.307V120.766L133.003 121.798L132.139 122.247L131.274 122.348C131.11 122.532 130.76 122.909 130.679 122.954C130.598 122.999 130.608 123.512 130.623 123.763L129.658 124.279L128.805 124.11L126.358 124.032L125.235 123.763L123.619 124.223L122.822 123.594L122.07 123.763L121.251 124.301L120.454 124.223L118.759 125.491L117.939 125.671L117.142 126.311L116.648 127.164H114.583L112.832 128.028H112.046L111.227 128.241L110.396 128.656L109.633 129.218L109.06 130.06L107.107 131.317L106.636 132.136L106.232 133.068L105.412 133.438L104.615 133.247L103.897 134.078L103.819 135.043L103.504 136.458L103.448 137.535L103.819 139.129L103.605 140.498L103.661 141.329H102.82V143.091L103.201 143.956L103.56 145.269L103.201 146.066L102.651 146.941L101.652 147.222L100.26 147.424H100.002L98.9245 149.051L97.9817 149.703L97.8133 150.69L96.5898 153.092L96.3316 153.99L95.9837 154.832L95.7143 155.652L95.3775 156.516L94.4459 157.391L93.5703 157.975L93.0315 158.862L91.2805 160.085L90.4274 160.545L89.8662 159.502L90.8764 159.266L91.7182 158.581L92.3805 157.84L92.2458 157.043L92.9642 156.123L93.6826 155.764L94.053 154.832L94.3112 153.912L94.3673 153.182H93.6826L92.7621 152.688L92.8744 153.575L93.0315 154.383L92.7621 155.304L91.9315 155.764L91.7182 156.74L90.8764 157.391L90.1243 158.256L89.3611 158.862L88.8447 159.85L88.9121 163.071L88.4294 164.104L88.1824 164.811L87.9018 165.675L87.0712 166.517L86.2181 166.966L85.4773 167.202L84.5232 166.966L84.2987 166.012L84.6467 165.148L85.612 164.272L86.4987 163.767L87.3406 162.981L87.4753 162.005L87.5875 161.196L86.7681 161.443L85.3201 163.363L84.2987 162.431L82.4354 160.007L80.718 158.738L79.8537 158.402C79.3224 157.975 78.2531 157.1 78.2261 157.01C78.1992 156.92 77.6162 155.902 77.3281 155.405L76.3965 155.685L75.5546 155.191L73.2423 152.879L72.8719 151.992H72.0974L70.8178 152.598L69.113 153.073V153.026V152.717L70.5359 150.761L71.9588 148.804Z" fill="white"/>
<path d="M69.113 153.073L70.8178 152.598M69.113 153.073V153.026M69.113 153.073V152.717M69.113 152.717V153.026M69.113 152.717L70.5359 150.761L71.9588 148.804M69.113 152.717L71.9588 148.804M71.9588 148.804L72.3146 148.449L73.026 147.737L73.3818 147.026L73.7375 146.67L74.449 146.314L75.1604 145.247L75.5162 144.18L76.2276 143.469L77.2948 143.113L78.362 142.757L78.7178 142.401H79.0735L79.4292 141.69L80.8522 140.978L81.9194 140.267H82.9866L83.698 139.556L84.4095 138.844V138.133V137.065V135.643L84.0538 134.931V133.864L83.3423 133.152L82.6308 132.797L80.8522 133.864L81.2079 132.797V128.528L81.5636 127.461L81.9194 126.749L81.5636 126.038L80.8522 125.682H79.785L79.0735 125.326L78.0063 124.615L77.6506 123.192L78.0063 122.125L77.6506 121.413L77.2948 120.702L77.6506 119.99L77.2948 118.923L74.8047 117.856H74.0932L73.026 118.212H71.2474L70.5359 118.568L68.4015 117.856L68.7572 116.077V115.366L68.4015 114.655L68.0458 114.299L68.7572 113.587V112.876L68.4015 111.809V110.386L68.0458 109.674V109.319L69.113 108.251L67.69 107.184L68.0458 106.473L68.7572 105.761L69.113 103.983L69.4687 102.916L69.8244 102.204L70.5359 100.781L69.113 99.0025L68.4015 98.2911L67.69 97.5796L66.6228 97.2239L66.2671 96.1567L65.9114 95.4453L66.2671 94.3781L66.9786 92.9552L67.3343 92.5994H66.9786H66.6228L59.5082 92.2437L58.0852 87.6192H58.7967H59.1524L59.5082 86.9078V86.1963L58.7967 85.1291L59.1524 84.4177V83.7062L58.441 82.9948L57.7295 82.2833H57.0181L55.2394 81.2161H54.5279L53.8165 81.5719H52.7493L51.6821 80.8604L50.9706 80.149H50.2591L49.1919 79.7932L48.4805 79.4375L47.4133 78.726L47.0575 78.0146H46.3461L44.5674 77.3031H42.7887L42.0773 76.9474L41.3658 76.2359L39.9429 75.1688L37.8085 73.3901V72.6787V71.9672V70.9V70.1886L36.7413 68.4099L37.8085 66.6313V65.9198L37.4527 65.2084L36.7413 65.5641H35.6741H34.9626H33.8954H33.1839L32.1167 66.2756L31.761 66.987L30.6938 67.6985H29.9823L28.9151 68.4099L28.5594 69.1214L27.8479 69.4771L26.7807 69.8328L25.7135 71.6115H25.0021L23.9349 71.2558H23.2234H22.5119L20.7333 71.6115L19.6661 71.2558L17.8874 72.3229H17.176L16.4645 71.9672L15.753 71.2558L16.1088 70.1886V67.3427V66.2756V65.5641L15.0416 65.2084L14.3301 65.9198L13.6186 66.2756L12.9072 66.987H12.5514L12.1957 67.3427V67.6985L10.417 68.0542H9.34983L8.63836 66.987C8.40121 66.6313 7.7846 65.9198 7.21543 65.9198L6.50396 65.5641L5.43676 65.9198H4.7253H4.36957L4.7253 65.2084V64.1412L4.01383 63.074L3.30237 62.3626L2.5909 61.6511L2.23517 59.8725L1.5237 59.161L1.16797 58.4496L1.5237 57.3824L2.23517 54.8923L2.5909 54.1808L3.6581 53.8251L4.36957 53.1136L4.7253 52.7579L4.01383 51.335V50.2678L4.36957 49.5564L5.08103 48.4892L5.7925 47.0663L7.21543 45.2876L8.99409 44.5762L9.70556 44.2204H11.4842L12.5514 43.509L14.3301 42.4418H15.3973L16.1088 42.7975L16.8202 42.4418H17.5317L17.8874 42.0861L18.9546 36.3944L19.3104 30.7028L19.6661 29.9913V28.9241L17.5317 26.434H16.8202V22.8768L17.176 21.8096L17.8874 22.1653L18.9546 21.4538L19.6661 22.1653L20.3776 21.8096V21.4538V20.7424L19.3104 20.0309L18.5989 19.6752L17.5317 20.0309V17.1851H22.7076L23.9349 17.5408L24.6463 16.8294V15.7622L25.7135 16.1179L26.425 15.7622H26.7807L27.4922 15.4065H28.2037L28.5594 15.7622L29.6266 17.5408L31.0495 19.3195L31.761 19.6752L32.1167 20.3867L32.8282 20.7424L34.6069 21.4538H35.3183L36.0298 20.7424L36.3855 20.0309L36.7413 19.6752L37.4527 20.7424L38.5199 18.608L40.2986 17.5408L41.0101 17.1851L41.3658 16.1179L42.433 15.4065L43.8559 15.0507L44.9231 14.695L44.5674 13.6278H43.5002H42.0773L41.0101 13.2721V12.2049L41.3658 11.4935L40.6543 10.782L41.0101 9.71482L40.6543 8.64764L39.9429 7.93618L39.2314 7.22473L38.5199 6.869L38.1642 5.80182H39.2314L39.9429 6.15754L41.0101 5.80182L42.0773 6.51327H42.7887L43.5002 6.869L44.2117 7.22473L45.2789 7.58046L45.9903 7.93618L46.7018 7.22473L47.4133 6.51327H47.769H49.1919L49.9034 5.80182L50.9706 6.15754L53.4607 4.73463H54.1722L56.6623 3.66745L57.0181 2.95599L56.3066 1.88881L58.441 0.821625L59.1524 1.17735L59.8639 1.53308V3.31172L59.088 3.73833V4.56596L60.2564 6.23008L60.4202 7.09311L59.8758 9.59814L59.805 12.9441L61.0664 16.3387L62.819 16.9362L63.8237 17.5514L64.762 17.7461H65.4923L67.9929 16.5378H70.2722L71.1751 15.6173L72.016 15.2322H72.9101L73.9192 14.9977L74.0741 15.2632C74.3588 15.2632 74.9283 15.2632 74.9283 15.2632L75.7692 15.874L76.8668 15.6704L77.69 15.0419V14.1966L76.7606 13.5416L76.9863 12.6475L78.677 13.0724L79.5799 12.86L80.4208 12.4528H81.1954L81.6955 13.3867L82.6205 13.338L82.886 14.0195L84.7498 14.6455L85.6837 14.183L86.5554 13.587L87.3025 13.7649L88.1742 13.587L89.0548 14.0051L89.8464 14.2008L90.7003 13.5337L92.7906 10.8297L93.1908 9.87799L95.2811 7.04062L95.7169 6.38242L95.3345 5.51075L96.1617 5.69753L96.8911 6.48915L97.3625 7.33414L98.1897 7.67213L98.0118 8.53491L98.2519 9.34432V10.2249L99.1058 11.906L98.8301 12.6709L99.2748 13.5337L99.1058 14.3787L99.426 15.2059L100.066 16.0331H101L101.614 16.4155C101.902 16.6053 102.482 16.9937 102.504 17.0292C102.525 17.0648 102.696 17.2872 102.779 17.3939L103.046 17.9899L103.304 18.7637L102.335 19.4397L101.792 20.3025L100.111 21.9569L99.0436 22.8819L98.1808 23.1843L97.5759 24.0471L96.7398 24.6163L96.1528 25.4791V26.2885L95.7525 27.0446L95.0943 27.9518L94.2493 28.7968L93.5733 29.6329L94.4539 29.7574L97.4247 28.8946L97.8606 27.8984L97.825 27.0446L98.581 26.7866L99.8708 28.4677L100.2 27.4893L99.4972 26.6354L99.7196 25.8527L100.316 25.0878L101.134 24.6163H102.975L103.749 24.8565H104.443L106.239 24.4651L107.236 24.0026L107.876 24.0916L108.739 24.2783L109.94 25.1144L109.37 25.9327L108.917 27.6494L108.428 28.4232L107.929 29.3038L107.093 30.042L106.319 30.2822L105.297 30.042L104.549 30.6825L103.713 31.1183L102.059 30.7447L100.227 31.1183H98.5899L97.8873 30.7447L96.7309 30.4868L95.8593 30.9226L95.9215 31.821L96.9889 31.1183L97.8428 31.6342L99.346 31.9544H100.324L101.196 31.5363L102.059 31.8032H102.806L103.713 32.0166H104.549L105.297 31.5808L105.492 32.408L106.319 31.7142L106.649 30.887L107.431 30.7447L108.428 30.042H109.184L109.326 29.2148L110.037 28.3165L110.42 27.4626L111.051 26.7777L111.994 26.3508L112.519 26.7066L113.515 26.9289L114.28 27.5249L115.935 27.9518L116.931 28.6278L119.777 29.8908L120.524 29.704L120.684 29.6507L121.503 30.0776L122.321 30.718L122.535 31.563L123.326 31.1183L124.251 31.3318L124.927 31.9188L125.63 32.9061V33.7511L125.399 34.5961L125.683 35.3877L125.47 36.3127V37.1488L124.758 37.9938L125.585 38.2962L126.288 37.4068L126.706 35.7168L127.605 35.5923C127.714 35.8117 127.951 36.2629 128.023 36.3127C128.094 36.3625 128.793 36.209 129.134 36.1259L129.286 35.9925L130.033 34.4004L131.705 35.3521L132.594 36.1259L133.475 36.3839C133.703 36.458 134.171 36.6098 134.213 36.624C134.256 36.6383 134.842 37.2645 135.129 37.5758L136.081 37.7181L136.828 36.9976C137.315 37.2763 138.305 37.8373 138.376 37.8515C138.447 37.8657 138.975 38.2725 139.23 38.4741L140.191 38.0383L141.053 38.3051L141.534 39.1323L143.544 38.1539H144.078L145.261 38.7232L145.865 39.497L147.048 39.4347L148.525 40.8312L149.752 42.45L151.425 43.1971L151.896 44.14L152.456 45.0383L152.839 45.8122C153.085 46.0582 153.582 46.5575 153.604 46.586C153.625 46.6145 154.816 47.2145 155.409 47.511L156.334 48.2048C156.557 48.2997 157.012 48.5001 157.055 48.5428C157.098 48.5855 157.636 49.1832 157.9 49.4767L158.149 50.2239L159.537 50.0816L162.045 50.8465L163.006 52.5898L162.756 53.4526L162.828 54.2709L163.652 55.8501V56.6848L163.878 57.5645L163.652 59.3015L163.359 61.061L163.652 61.828V62.5499L162.818 64.2192V65.0538L162.006 67.6029L160.652 69.3398L159.975 69.4752L158.78 69.3398L159.231 70.2647V70.3775L159.366 70.8287L158.577 71.7987L157.81 72.7912L156.208 74.0545H155.261L154.629 75.0019L153.727 75.453L152.08 78.8368L150.569 80.1677L149.982 81.0249L149.035 81.4084L148.177 81.273L147.23 80.7767L146.978 81.6367L147.09 82.4786L146.832 83.2979C146.435 83.8367 145.635 84.9255 145.608 84.9704C145.581 85.0153 145.47 85.5803 145.417 85.8571L145.518 86.6653L146.506 86.1041L146.394 87.9225L145.608 88.5286L145.126 89.449L145.518 90.1674V91.896L145.799 92.7266V93.6246L145.518 94.5674L145.608 95.2409L145.126 96.1725L144.968 96.947L144.463 97.8225L144.351 98.6083L143.7 99.4052L143.128 101.964V102.874L141.893 104.524L141.455 105.343L141.275 106.129V107.06L141.029 107.756V108.744L140.838 109.451L140.456 110.349L139.491 110.899L138.671 112.325C138.409 112.523 137.886 112.92 137.886 112.92L137.717 113.717V114.603L136.842 114.738L135.932 115.535L135.147 115.838L135.203 116.646L133.923 118.307V120.766L133.003 121.798L132.139 122.247L131.274 122.348C131.11 122.532 130.76 122.909 130.679 122.954C130.598 122.999 130.608 123.512 130.623 123.763L129.658 124.279L128.805 124.11L126.358 124.032L125.235 123.763L123.619 124.223L122.822 123.594L122.07 123.763L121.251 124.301L120.454 124.223L118.759 125.491L117.939 125.671L117.142 126.311L116.648 127.164H114.583L112.832 128.028H112.046L111.227 128.241L110.396 128.656L109.633 129.218L109.06 130.06L107.107 131.317L106.636 132.136L106.232 133.068L105.412 133.438L104.615 133.247L103.897 134.078L103.819 135.043L103.504 136.458L103.448 137.535L103.819 139.129L103.605 140.498L103.661 141.329H102.82V143.091L103.201 143.956L103.56 145.269L103.201 146.066L102.651 146.941L101.652 147.222L100.26 147.424H100.002L98.9245 149.051C98.6102 149.269 97.9816 149.703 97.9816 149.703L97.8133 150.69C97.4054 151.491 96.5898 153.092 96.5898 153.092L96.3316 153.99L95.9836 154.832L95.7143 155.652L95.3775 156.516L94.4459 157.391L93.5703 157.975L93.0315 158.862L91.2805 160.085L90.4274 160.545L89.8662 159.502L90.8764 159.266L91.7182 158.581L92.3805 157.84L92.2458 157.043L92.9642 156.123L93.6826 155.764L94.053 154.832L94.3112 153.912L94.3673 153.182H93.6826L92.7621 152.688L92.8744 153.575L93.0315 154.383L92.7621 155.304L91.9315 155.764L91.7182 156.74L90.8764 157.391L90.1243 158.256L89.3611 158.862L88.8447 159.85L88.9121 163.071L88.4294 164.104L88.1825 164.811L87.9018 165.675L87.0712 166.517L86.2181 166.966L85.4773 167.202L84.5232 166.966L84.2987 166.012L84.6467 165.148L85.612 164.272L86.4987 163.767L87.3406 162.981L87.4753 162.005L87.5875 161.196L86.7681 161.443L85.3201 163.363L84.2987 162.431L82.4354 160.007L80.718 158.738C80.4299 158.626 79.8537 158.402 79.8537 158.402C79.3224 157.975 78.2531 157.1 78.2261 157.01C78.1992 156.92 77.6162 155.902 77.3281 155.405L76.3965 155.685L75.5546 155.191L73.2423 152.879L72.8719 151.992M72.8719 151.992C72.8719 151.992 72.3999 151.992 72.0974 151.992M72.8719 151.992H72.0974M72.0974 151.992L70.8178 152.598M70.8178 152.598L69.113 153.026" stroke="black" stroke-width="1.14156"/>
</svg>
